<svg xmlns="http://www.w3.org/2000/svg" xmlns:xlink="http://www.w3.org/1999/xlink" width="500" zoomAndPan="magnify" viewBox="0 0 375 374.999991" height="500" preserveAspectRatio="xMidYMid meet" version="1.0"><defs><g/><clipPath id="cc38ce1167"><path d="M 187.5 0 C 83.945312 0 0 83.945312 0 187.5 C 0 291.054688 83.945312 375 187.5 375 C 291.054688 375 375 291.054688 375 187.5 C 375 83.945312 291.054688 0 187.5 0 Z M 187.5 0 " clip-rule="nonzero"/></clipPath><linearGradient x1="0" gradientTransform="matrix(1.464844, 0, 0, 1.464844, 0.0000045, 0)" y1="128" x2="255.999988" gradientUnits="userSpaceOnUse" y2="128" id="18e28495ae"><stop stop-opacity="1" stop-color="rgb(54.899597%, 32.199097%, 100%)" offset="0"/><stop stop-opacity="1" stop-color="rgb(54.826355%, 32.417297%, 99.960327%)" offset="0.00390625"/><stop stop-opacity="1" stop-color="rgb(54.753113%, 32.637024%, 99.92218%)" offset="0.0078125"/><stop stop-opacity="1" stop-color="rgb(54.678345%, 32.855225%, 99.884033%)" offset="0.0117188"/><stop stop-opacity="1" stop-color="rgb(54.605103%, 33.074951%, 99.845886%)" offset="0.015625"/><stop stop-opacity="1" stop-color="rgb(54.53186%, 33.293152%, 99.807739%)" offset="0.0195313"/><stop stop-opacity="1" stop-color="rgb(54.458618%, 33.511353%, 99.769592%)" offset="0.0234375"/><stop stop-opacity="1" stop-color="rgb(54.385376%, 33.729553%, 99.731445%)" offset="0.0273438"/><stop stop-opacity="1" stop-color="rgb(54.312134%, 33.94928%, 99.693298%)" offset="0.03125"/><stop stop-opacity="1" stop-color="rgb(54.237366%, 34.16748%, 99.655151%)" offset="0.0351562"/><stop stop-opacity="1" stop-color="rgb(54.164124%, 34.387207%, 99.617004%)" offset="0.0390625"/><stop stop-opacity="1" stop-color="rgb(54.090881%, 34.605408%, 99.577332%)" offset="0.0429688"/><stop stop-opacity="1" stop-color="rgb(54.017639%, 34.823608%, 99.539185%)" offset="0.046875"/><stop stop-opacity="1" stop-color="rgb(53.944397%, 35.041809%, 99.501038%)" offset="0.0507812"/><stop stop-opacity="1" stop-color="rgb(53.871155%, 35.261536%, 99.462891%)" offset="0.0546875"/><stop stop-opacity="1" stop-color="rgb(53.797913%, 35.479736%, 99.424744%)" offset="0.0585938"/><stop stop-opacity="1" stop-color="rgb(53.72467%, 35.699463%, 99.386597%)" offset="0.0625"/><stop stop-opacity="1" stop-color="rgb(53.649902%, 35.917664%, 99.34845%)" offset="0.0664062"/><stop stop-opacity="1" stop-color="rgb(53.57666%, 36.13739%, 99.310303%)" offset="0.0703125"/><stop stop-opacity="1" stop-color="rgb(53.503418%, 36.355591%, 99.272156%)" offset="0.0742188"/><stop stop-opacity="1" stop-color="rgb(53.430176%, 36.573792%, 99.234009%)" offset="0.078125"/><stop stop-opacity="1" stop-color="rgb(53.356934%, 36.791992%, 99.195862%)" offset="0.0820312"/><stop stop-opacity="1" stop-color="rgb(53.283691%, 37.011719%, 99.157715%)" offset="0.0859375"/><stop stop-opacity="1" stop-color="rgb(53.210449%, 37.229919%, 99.118042%)" offset="0.0898438"/><stop stop-opacity="1" stop-color="rgb(53.137207%, 37.449646%, 99.079895%)" offset="0.09375"/><stop stop-opacity="1" stop-color="rgb(53.062439%, 37.667847%, 99.041748%)" offset="0.0976562"/><stop stop-opacity="1" stop-color="rgb(52.989197%, 37.886047%, 99.003601%)" offset="0.101562"/><stop stop-opacity="1" stop-color="rgb(52.915955%, 38.104248%, 98.965454%)" offset="0.105469"/><stop stop-opacity="1" stop-color="rgb(52.842712%, 38.323975%, 98.927307%)" offset="0.109375"/><stop stop-opacity="1" stop-color="rgb(52.76947%, 38.542175%, 98.88916%)" offset="0.113281"/><stop stop-opacity="1" stop-color="rgb(52.696228%, 38.761902%, 98.851013%)" offset="0.117188"/><stop stop-opacity="1" stop-color="rgb(52.622986%, 38.980103%, 98.812866%)" offset="0.121094"/><stop stop-opacity="1" stop-color="rgb(52.549744%, 39.199829%, 98.774719%)" offset="0.125"/><stop stop-opacity="1" stop-color="rgb(52.474976%, 39.41803%, 98.736572%)" offset="0.128906"/><stop stop-opacity="1" stop-color="rgb(52.401733%, 39.63623%, 98.698425%)" offset="0.132812"/><stop stop-opacity="1" stop-color="rgb(52.328491%, 39.854431%, 98.658752%)" offset="0.136719"/><stop stop-opacity="1" stop-color="rgb(52.255249%, 40.074158%, 98.620605%)" offset="0.140625"/><stop stop-opacity="1" stop-color="rgb(52.182007%, 40.292358%, 98.582458%)" offset="0.144531"/><stop stop-opacity="1" stop-color="rgb(52.108765%, 40.512085%, 98.544312%)" offset="0.148438"/><stop stop-opacity="1" stop-color="rgb(52.035522%, 40.730286%, 98.506165%)" offset="0.152344"/><stop stop-opacity="1" stop-color="rgb(51.96228%, 40.948486%, 98.468018%)" offset="0.15625"/><stop stop-opacity="1" stop-color="rgb(51.887512%, 41.166687%, 98.429871%)" offset="0.160156"/><stop stop-opacity="1" stop-color="rgb(51.81427%, 41.386414%, 98.391724%)" offset="0.164062"/><stop stop-opacity="1" stop-color="rgb(51.741028%, 41.604614%, 98.353577%)" offset="0.167969"/><stop stop-opacity="1" stop-color="rgb(51.667786%, 41.824341%, 98.31543%)" offset="0.171875"/><stop stop-opacity="1" stop-color="rgb(51.594543%, 42.042542%, 98.275757%)" offset="0.175781"/><stop stop-opacity="1" stop-color="rgb(51.521301%, 42.262268%, 98.23761%)" offset="0.179688"/><stop stop-opacity="1" stop-color="rgb(51.448059%, 42.480469%, 98.199463%)" offset="0.183594"/><stop stop-opacity="1" stop-color="rgb(51.374817%, 42.698669%, 98.161316%)" offset="0.1875"/><stop stop-opacity="1" stop-color="rgb(51.300049%, 42.91687%, 98.123169%)" offset="0.191406"/><stop stop-opacity="1" stop-color="rgb(51.226807%, 43.136597%, 98.085022%)" offset="0.195312"/><stop stop-opacity="1" stop-color="rgb(51.153564%, 43.354797%, 98.046875%)" offset="0.199219"/><stop stop-opacity="1" stop-color="rgb(51.080322%, 43.574524%, 98.008728%)" offset="0.203125"/><stop stop-opacity="1" stop-color="rgb(51.00708%, 43.792725%, 97.970581%)" offset="0.207031"/><stop stop-opacity="1" stop-color="rgb(50.933838%, 44.012451%, 97.932434%)" offset="0.210938"/><stop stop-opacity="1" stop-color="rgb(50.860596%, 44.230652%, 97.894287%)" offset="0.214844"/><stop stop-opacity="1" stop-color="rgb(50.787354%, 44.448853%, 97.85614%)" offset="0.21875"/><stop stop-opacity="1" stop-color="rgb(50.712585%, 44.667053%, 97.816467%)" offset="0.222656"/><stop stop-opacity="1" stop-color="rgb(50.639343%, 44.88678%, 97.77832%)" offset="0.226562"/><stop stop-opacity="1" stop-color="rgb(50.566101%, 45.10498%, 97.740173%)" offset="0.230469"/><stop stop-opacity="1" stop-color="rgb(50.492859%, 45.324707%, 97.702026%)" offset="0.234375"/><stop stop-opacity="1" stop-color="rgb(50.419617%, 45.542908%, 97.663879%)" offset="0.238281"/><stop stop-opacity="1" stop-color="rgb(50.346375%, 45.761108%, 97.625732%)" offset="0.242188"/><stop stop-opacity="1" stop-color="rgb(50.273132%, 45.979309%, 97.587585%)" offset="0.246094"/><stop stop-opacity="1" stop-color="rgb(50.19989%, 46.199036%, 97.549438%)" offset="0.25"/><stop stop-opacity="1" stop-color="rgb(50.125122%, 46.417236%, 97.511292%)" offset="0.253906"/><stop stop-opacity="1" stop-color="rgb(50.05188%, 46.636963%, 97.473145%)" offset="0.257812"/><stop stop-opacity="1" stop-color="rgb(49.978638%, 46.855164%, 97.434998%)" offset="0.261719"/><stop stop-opacity="1" stop-color="rgb(49.905396%, 47.07489%, 97.396851%)" offset="0.265625"/><stop stop-opacity="1" stop-color="rgb(49.832153%, 47.293091%, 97.357178%)" offset="0.269531"/><stop stop-opacity="1" stop-color="rgb(49.758911%, 47.511292%, 97.319031%)" offset="0.273438"/><stop stop-opacity="1" stop-color="rgb(49.685669%, 47.729492%, 97.280884%)" offset="0.277344"/><stop stop-opacity="1" stop-color="rgb(49.612427%, 47.949219%, 97.242737%)" offset="0.28125"/><stop stop-opacity="1" stop-color="rgb(49.537659%, 48.167419%, 97.20459%)" offset="0.285156"/><stop stop-opacity="1" stop-color="rgb(49.464417%, 48.387146%, 97.166443%)" offset="0.289063"/><stop stop-opacity="1" stop-color="rgb(49.391174%, 48.605347%, 97.128296%)" offset="0.292969"/><stop stop-opacity="1" stop-color="rgb(49.317932%, 48.823547%, 97.090149%)" offset="0.296875"/><stop stop-opacity="1" stop-color="rgb(49.24469%, 49.041748%, 97.052002%)" offset="0.300781"/><stop stop-opacity="1" stop-color="rgb(49.171448%, 49.261475%, 97.013855%)" offset="0.304688"/><stop stop-opacity="1" stop-color="rgb(49.098206%, 49.479675%, 96.974182%)" offset="0.308594"/><stop stop-opacity="1" stop-color="rgb(49.024963%, 49.699402%, 96.936035%)" offset="0.3125"/><stop stop-opacity="1" stop-color="rgb(48.950195%, 49.917603%, 96.897888%)" offset="0.316406"/><stop stop-opacity="1" stop-color="rgb(48.876953%, 50.137329%, 96.859741%)" offset="0.320312"/><stop stop-opacity="1" stop-color="rgb(48.803711%, 50.35553%, 96.821594%)" offset="0.324219"/><stop stop-opacity="1" stop-color="rgb(48.730469%, 50.57373%, 96.783447%)" offset="0.328125"/><stop stop-opacity="1" stop-color="rgb(48.657227%, 50.791931%, 96.7453%)" offset="0.332031"/><stop stop-opacity="1" stop-color="rgb(48.583984%, 51.011658%, 96.707153%)" offset="0.335938"/><stop stop-opacity="1" stop-color="rgb(48.510742%, 51.229858%, 96.669006%)" offset="0.339844"/><stop stop-opacity="1" stop-color="rgb(48.4375%, 51.449585%, 96.630859%)" offset="0.34375"/><stop stop-opacity="1" stop-color="rgb(48.362732%, 51.667786%, 96.592712%)" offset="0.347656"/><stop stop-opacity="1" stop-color="rgb(48.28949%, 51.885986%, 96.554565%)" offset="0.351562"/><stop stop-opacity="1" stop-color="rgb(48.216248%, 52.104187%, 96.514893%)" offset="0.355469"/><stop stop-opacity="1" stop-color="rgb(48.143005%, 52.323914%, 96.476746%)" offset="0.359375"/><stop stop-opacity="1" stop-color="rgb(48.069763%, 52.542114%, 96.438599%)" offset="0.363281"/><stop stop-opacity="1" stop-color="rgb(47.996521%, 52.761841%, 96.400452%)" offset="0.367188"/><stop stop-opacity="1" stop-color="rgb(47.921753%, 52.980042%, 96.362305%)" offset="0.371094"/><stop stop-opacity="1" stop-color="rgb(47.848511%, 53.199768%, 96.324158%)" offset="0.375"/><stop stop-opacity="1" stop-color="rgb(47.775269%, 53.417969%, 96.286011%)" offset="0.378906"/><stop stop-opacity="1" stop-color="rgb(47.702026%, 53.636169%, 96.247864%)" offset="0.382812"/><stop stop-opacity="1" stop-color="rgb(47.628784%, 53.85437%, 96.209717%)" offset="0.386719"/><stop stop-opacity="1" stop-color="rgb(47.555542%, 54.074097%, 96.17157%)" offset="0.390625"/><stop stop-opacity="1" stop-color="rgb(47.4823%, 54.292297%, 96.133423%)" offset="0.394531"/><stop stop-opacity="1" stop-color="rgb(47.409058%, 54.512024%, 96.095276%)" offset="0.398438"/><stop stop-opacity="1" stop-color="rgb(47.33429%, 54.730225%, 96.055603%)" offset="0.402344"/><stop stop-opacity="1" stop-color="rgb(47.261047%, 54.949951%, 96.017456%)" offset="0.40625"/><stop stop-opacity="1" stop-color="rgb(47.187805%, 55.168152%, 95.979309%)" offset="0.410156"/><stop stop-opacity="1" stop-color="rgb(47.114563%, 55.386353%, 95.941162%)" offset="0.414062"/><stop stop-opacity="1" stop-color="rgb(47.041321%, 55.604553%, 95.903015%)" offset="0.417969"/><stop stop-opacity="1" stop-color="rgb(46.968079%, 55.82428%, 95.864868%)" offset="0.421875"/><stop stop-opacity="1" stop-color="rgb(46.894836%, 56.04248%, 95.826721%)" offset="0.425781"/><stop stop-opacity="1" stop-color="rgb(46.821594%, 56.262207%, 95.788574%)" offset="0.429688"/><stop stop-opacity="1" stop-color="rgb(46.746826%, 56.480408%, 95.750427%)" offset="0.433594"/><stop stop-opacity="1" stop-color="rgb(46.673584%, 56.698608%, 95.71228%)" offset="0.4375"/><stop stop-opacity="1" stop-color="rgb(46.600342%, 56.916809%, 95.672607%)" offset="0.441406"/><stop stop-opacity="1" stop-color="rgb(46.5271%, 57.136536%, 95.63446%)" offset="0.445312"/><stop stop-opacity="1" stop-color="rgb(46.453857%, 57.354736%, 95.596313%)" offset="0.449219"/><stop stop-opacity="1" stop-color="rgb(46.380615%, 57.574463%, 95.558167%)" offset="0.453125"/><stop stop-opacity="1" stop-color="rgb(46.307373%, 57.792664%, 95.52002%)" offset="0.457031"/><stop stop-opacity="1" stop-color="rgb(46.234131%, 58.01239%, 95.481873%)" offset="0.460938"/><stop stop-opacity="1" stop-color="rgb(46.159363%, 58.230591%, 95.443726%)" offset="0.464844"/><stop stop-opacity="1" stop-color="rgb(46.086121%, 58.448792%, 95.405579%)" offset="0.46875"/><stop stop-opacity="1" stop-color="rgb(46.012878%, 58.666992%, 95.367432%)" offset="0.472656"/><stop stop-opacity="1" stop-color="rgb(45.939636%, 58.886719%, 95.329285%)" offset="0.476562"/><stop stop-opacity="1" stop-color="rgb(45.866394%, 59.104919%, 95.291138%)" offset="0.480469"/><stop stop-opacity="1" stop-color="rgb(45.793152%, 59.324646%, 95.252991%)" offset="0.484375"/><stop stop-opacity="1" stop-color="rgb(45.71991%, 59.542847%, 95.213318%)" offset="0.488281"/><stop stop-opacity="1" stop-color="rgb(45.646667%, 59.761047%, 95.175171%)" offset="0.492188"/><stop stop-opacity="1" stop-color="rgb(45.571899%, 59.979248%, 95.137024%)" offset="0.496094"/><stop stop-opacity="1" stop-color="rgb(45.498657%, 60.198975%, 95.098877%)" offset="0.5"/><stop stop-opacity="1" stop-color="rgb(45.425415%, 60.417175%, 95.06073%)" offset="0.503906"/><stop stop-opacity="1" stop-color="rgb(45.352173%, 60.636902%, 95.022583%)" offset="0.507812"/><stop stop-opacity="1" stop-color="rgb(45.278931%, 60.855103%, 94.984436%)" offset="0.511719"/><stop stop-opacity="1" stop-color="rgb(45.205688%, 61.074829%, 94.946289%)" offset="0.515625"/><stop stop-opacity="1" stop-color="rgb(45.132446%, 61.29303%, 94.908142%)" offset="0.519531"/><stop stop-opacity="1" stop-color="rgb(45.059204%, 61.51123%, 94.869995%)" offset="0.523438"/><stop stop-opacity="1" stop-color="rgb(44.984436%, 61.729431%, 94.831848%)" offset="0.527344"/><stop stop-opacity="1" stop-color="rgb(44.911194%, 61.949158%, 94.793701%)" offset="0.53125"/><stop stop-opacity="1" stop-color="rgb(44.837952%, 62.167358%, 94.754028%)" offset="0.535156"/><stop stop-opacity="1" stop-color="rgb(44.764709%, 62.387085%, 94.715881%)" offset="0.539062"/><stop stop-opacity="1" stop-color="rgb(44.691467%, 62.605286%, 94.677734%)" offset="0.542969"/><stop stop-opacity="1" stop-color="rgb(44.618225%, 62.823486%, 94.639587%)" offset="0.546875"/><stop stop-opacity="1" stop-color="rgb(44.544983%, 63.041687%, 94.60144%)" offset="0.550781"/><stop stop-opacity="1" stop-color="rgb(44.471741%, 63.261414%, 94.563293%)" offset="0.554688"/><stop stop-opacity="1" stop-color="rgb(44.396973%, 63.479614%, 94.525146%)" offset="0.558594"/><stop stop-opacity="1" stop-color="rgb(44.32373%, 63.699341%, 94.487%)" offset="0.5625"/><stop stop-opacity="1" stop-color="rgb(44.250488%, 63.917542%, 94.448853%)" offset="0.566406"/><stop stop-opacity="1" stop-color="rgb(44.177246%, 64.137268%, 94.410706%)" offset="0.570312"/><stop stop-opacity="1" stop-color="rgb(44.104004%, 64.355469%, 94.371033%)" offset="0.574219"/><stop stop-opacity="1" stop-color="rgb(44.030762%, 64.573669%, 94.332886%)" offset="0.578125"/><stop stop-opacity="1" stop-color="rgb(43.95752%, 64.79187%, 94.294739%)" offset="0.582031"/><stop stop-opacity="1" stop-color="rgb(43.884277%, 65.011597%, 94.256592%)" offset="0.585938"/><stop stop-opacity="1" stop-color="rgb(43.809509%, 65.229797%, 94.218445%)" offset="0.589844"/><stop stop-opacity="1" stop-color="rgb(43.736267%, 65.449524%, 94.180298%)" offset="0.59375"/><stop stop-opacity="1" stop-color="rgb(43.663025%, 65.667725%, 94.142151%)" offset="0.597656"/><stop stop-opacity="1" stop-color="rgb(43.589783%, 65.887451%, 94.104004%)" offset="0.601563"/><stop stop-opacity="1" stop-color="rgb(43.516541%, 66.105652%, 94.065857%)" offset="0.605469"/><stop stop-opacity="1" stop-color="rgb(43.443298%, 66.323853%, 94.02771%)" offset="0.609375"/><stop stop-opacity="1" stop-color="rgb(43.370056%, 66.542053%, 93.989563%)" offset="0.613281"/><stop stop-opacity="1" stop-color="rgb(43.296814%, 66.76178%, 93.951416%)" offset="0.617188"/><stop stop-opacity="1" stop-color="rgb(43.222046%, 66.97998%, 93.911743%)" offset="0.621094"/><stop stop-opacity="1" stop-color="rgb(43.148804%, 67.199707%, 93.873596%)" offset="0.625"/><stop stop-opacity="1" stop-color="rgb(43.075562%, 67.417908%, 93.835449%)" offset="0.628906"/><stop stop-opacity="1" stop-color="rgb(43.002319%, 67.636108%, 93.797302%)" offset="0.632812"/><stop stop-opacity="1" stop-color="rgb(42.929077%, 67.854309%, 93.759155%)" offset="0.636719"/><stop stop-opacity="1" stop-color="rgb(42.855835%, 68.074036%, 93.721008%)" offset="0.640625"/><stop stop-opacity="1" stop-color="rgb(42.782593%, 68.292236%, 93.682861%)" offset="0.644531"/><stop stop-opacity="1" stop-color="rgb(42.709351%, 68.511963%, 93.644714%)" offset="0.648438"/><stop stop-opacity="1" stop-color="rgb(42.634583%, 68.730164%, 93.606567%)" offset="0.652344"/><stop stop-opacity="1" stop-color="rgb(42.56134%, 68.94989%, 93.56842%)" offset="0.65625"/><stop stop-opacity="1" stop-color="rgb(42.488098%, 69.168091%, 93.530273%)" offset="0.660156"/><stop stop-opacity="1" stop-color="rgb(42.414856%, 69.386292%, 93.492126%)" offset="0.664063"/><stop stop-opacity="1" stop-color="rgb(42.341614%, 69.604492%, 93.452454%)" offset="0.667969"/><stop stop-opacity="1" stop-color="rgb(42.268372%, 69.824219%, 93.414307%)" offset="0.671875"/><stop stop-opacity="1" stop-color="rgb(42.193604%, 70.042419%, 93.37616%)" offset="0.675781"/><stop stop-opacity="1" stop-color="rgb(42.120361%, 70.262146%, 93.338013%)" offset="0.679688"/><stop stop-opacity="1" stop-color="rgb(42.047119%, 70.480347%, 93.299866%)" offset="0.683594"/><stop stop-opacity="1" stop-color="rgb(41.973877%, 70.698547%, 93.261719%)" offset="0.6875"/><stop stop-opacity="1" stop-color="rgb(41.900635%, 70.916748%, 93.223572%)" offset="0.691406"/><stop stop-opacity="1" stop-color="rgb(41.827393%, 71.136475%, 93.185425%)" offset="0.695313"/><stop stop-opacity="1" stop-color="rgb(41.75415%, 71.354675%, 93.147278%)" offset="0.699219"/><stop stop-opacity="1" stop-color="rgb(41.680908%, 71.574402%, 93.109131%)" offset="0.703125"/><stop stop-opacity="1" stop-color="rgb(41.60614%, 71.792603%, 93.069458%)" offset="0.707031"/><stop stop-opacity="1" stop-color="rgb(41.532898%, 72.012329%, 93.031311%)" offset="0.710938"/><stop stop-opacity="1" stop-color="rgb(41.459656%, 72.23053%, 92.993164%)" offset="0.714844"/><stop stop-opacity="1" stop-color="rgb(41.386414%, 72.44873%, 92.955017%)" offset="0.71875"/><stop stop-opacity="1" stop-color="rgb(41.313171%, 72.666931%, 92.91687%)" offset="0.722656"/><stop stop-opacity="1" stop-color="rgb(41.239929%, 72.886658%, 92.878723%)" offset="0.726562"/><stop stop-opacity="1" stop-color="rgb(41.166687%, 73.104858%, 92.840576%)" offset="0.730469"/><stop stop-opacity="1" stop-color="rgb(41.093445%, 73.324585%, 92.802429%)" offset="0.734375"/><stop stop-opacity="1" stop-color="rgb(41.018677%, 73.542786%, 92.764282%)" offset="0.738281"/><stop stop-opacity="1" stop-color="rgb(40.945435%, 73.760986%, 92.726135%)" offset="0.742188"/><stop stop-opacity="1" stop-color="rgb(40.872192%, 73.979187%, 92.687988%)" offset="0.746094"/><stop stop-opacity="1" stop-color="rgb(40.79895%, 74.198914%, 92.649841%)" offset="0.75"/><stop stop-opacity="1" stop-color="rgb(40.725708%, 74.417114%, 92.610168%)" offset="0.753906"/><stop stop-opacity="1" stop-color="rgb(40.652466%, 74.636841%, 92.572021%)" offset="0.757812"/><stop stop-opacity="1" stop-color="rgb(40.579224%, 74.855042%, 92.533875%)" offset="0.761719"/><stop stop-opacity="1" stop-color="rgb(40.505981%, 75.074768%, 92.495728%)" offset="0.765625"/><stop stop-opacity="1" stop-color="rgb(40.431213%, 75.292969%, 92.457581%)" offset="0.769531"/><stop stop-opacity="1" stop-color="rgb(40.357971%, 75.511169%, 92.419434%)" offset="0.773438"/><stop stop-opacity="1" stop-color="rgb(40.284729%, 75.72937%, 92.381287%)" offset="0.777344"/><stop stop-opacity="1" stop-color="rgb(40.211487%, 75.949097%, 92.34314%)" offset="0.78125"/><stop stop-opacity="1" stop-color="rgb(40.138245%, 76.167297%, 92.304993%)" offset="0.785156"/><stop stop-opacity="1" stop-color="rgb(40.065002%, 76.387024%, 92.266846%)" offset="0.789062"/><stop stop-opacity="1" stop-color="rgb(39.99176%, 76.605225%, 92.228699%)" offset="0.792969"/><stop stop-opacity="1" stop-color="rgb(39.918518%, 76.824951%, 92.190552%)" offset="0.796875"/><stop stop-opacity="1" stop-color="rgb(39.84375%, 77.043152%, 92.150879%)" offset="0.800781"/><stop stop-opacity="1" stop-color="rgb(39.770508%, 77.261353%, 92.112732%)" offset="0.804688"/><stop stop-opacity="1" stop-color="rgb(39.697266%, 77.479553%, 92.074585%)" offset="0.808594"/><stop stop-opacity="1" stop-color="rgb(39.624023%, 77.69928%, 92.036438%)" offset="0.8125"/><stop stop-opacity="1" stop-color="rgb(39.550781%, 77.91748%, 91.998291%)" offset="0.816406"/><stop stop-opacity="1" stop-color="rgb(39.477539%, 78.137207%, 91.960144%)" offset="0.820313"/><stop stop-opacity="1" stop-color="rgb(39.404297%, 78.355408%, 91.921997%)" offset="0.824219"/><stop stop-opacity="1" stop-color="rgb(39.331055%, 78.573608%, 91.88385%)" offset="0.828125"/><stop stop-opacity="1" stop-color="rgb(39.256287%, 78.791809%, 91.845703%)" offset="0.832031"/><stop stop-opacity="1" stop-color="rgb(39.183044%, 79.011536%, 91.807556%)" offset="0.835938"/><stop stop-opacity="1" stop-color="rgb(39.109802%, 79.229736%, 91.767883%)" offset="0.839844"/><stop stop-opacity="1" stop-color="rgb(39.03656%, 79.449463%, 91.729736%)" offset="0.84375"/><stop stop-opacity="1" stop-color="rgb(38.963318%, 79.667664%, 91.691589%)" offset="0.847656"/><stop stop-opacity="1" stop-color="rgb(38.890076%, 79.88739%, 91.653442%)" offset="0.851562"/><stop stop-opacity="1" stop-color="rgb(38.816833%, 80.105591%, 91.615295%)" offset="0.855469"/><stop stop-opacity="1" stop-color="rgb(38.743591%, 80.323792%, 91.577148%)" offset="0.859375"/><stop stop-opacity="1" stop-color="rgb(38.668823%, 80.541992%, 91.539001%)" offset="0.863281"/><stop stop-opacity="1" stop-color="rgb(38.595581%, 80.761719%, 91.500854%)" offset="0.867188"/><stop stop-opacity="1" stop-color="rgb(38.522339%, 80.979919%, 91.462708%)" offset="0.871094"/><stop stop-opacity="1" stop-color="rgb(38.449097%, 81.199646%, 91.424561%)" offset="0.875"/><stop stop-opacity="1" stop-color="rgb(38.375854%, 81.417847%, 91.386414%)" offset="0.878906"/><stop stop-opacity="1" stop-color="rgb(38.302612%, 81.636047%, 91.348267%)" offset="0.882812"/><stop stop-opacity="1" stop-color="rgb(38.22937%, 81.854248%, 91.308594%)" offset="0.886719"/><stop stop-opacity="1" stop-color="rgb(38.156128%, 82.073975%, 91.270447%)" offset="0.890625"/><stop stop-opacity="1" stop-color="rgb(38.08136%, 82.292175%, 91.2323%)" offset="0.894531"/><stop stop-opacity="1" stop-color="rgb(38.008118%, 82.511902%, 91.194153%)" offset="0.898438"/><stop stop-opacity="1" stop-color="rgb(37.934875%, 82.730103%, 91.156006%)" offset="0.902344"/><stop stop-opacity="1" stop-color="rgb(37.861633%, 82.949829%, 91.117859%)" offset="0.90625"/><stop stop-opacity="1" stop-color="rgb(37.788391%, 83.16803%, 91.079712%)" offset="0.910156"/><stop stop-opacity="1" stop-color="rgb(37.715149%, 83.38623%, 91.041565%)" offset="0.914062"/><stop stop-opacity="1" stop-color="rgb(37.641907%, 83.604431%, 91.003418%)" offset="0.917969"/><stop stop-opacity="1" stop-color="rgb(37.568665%, 83.824158%, 90.965271%)" offset="0.921875"/><stop stop-opacity="1" stop-color="rgb(37.493896%, 84.042358%, 90.927124%)" offset="0.925781"/><stop stop-opacity="1" stop-color="rgb(37.420654%, 84.262085%, 90.888977%)" offset="0.929688"/><stop stop-opacity="1" stop-color="rgb(37.347412%, 84.480286%, 90.849304%)" offset="0.933594"/><stop stop-opacity="1" stop-color="rgb(37.27417%, 84.698486%, 90.811157%)" offset="0.9375"/><stop stop-opacity="1" stop-color="rgb(37.200928%, 84.916687%, 90.77301%)" offset="0.941406"/><stop stop-opacity="1" stop-color="rgb(37.127686%, 85.136414%, 90.734863%)" offset="0.945312"/><stop stop-opacity="1" stop-color="rgb(37.054443%, 85.354614%, 90.696716%)" offset="0.949219"/><stop stop-opacity="1" stop-color="rgb(36.981201%, 85.574341%, 90.658569%)" offset="0.953125"/><stop stop-opacity="1" stop-color="rgb(36.906433%, 85.792542%, 90.620422%)" offset="0.957031"/><stop stop-opacity="1" stop-color="rgb(36.833191%, 86.012268%, 90.582275%)" offset="0.960938"/><stop stop-opacity="1" stop-color="rgb(36.759949%, 86.230469%, 90.544128%)" offset="0.964844"/><stop stop-opacity="1" stop-color="rgb(36.686707%, 86.448669%, 90.505981%)" offset="0.96875"/><stop stop-opacity="1" stop-color="rgb(36.613464%, 86.66687%, 90.467834%)" offset="0.972656"/><stop stop-opacity="1" stop-color="rgb(36.540222%, 86.886597%, 90.429688%)" offset="0.976562"/><stop stop-opacity="1" stop-color="rgb(36.46698%, 87.104797%, 90.390015%)" offset="0.980469"/><stop stop-opacity="1" stop-color="rgb(36.393738%, 87.324524%, 90.351868%)" offset="0.984375"/><stop stop-opacity="1" stop-color="rgb(36.31897%, 87.542725%, 90.313721%)" offset="0.988281"/><stop stop-opacity="1" stop-color="rgb(36.245728%, 87.762451%, 90.275574%)" offset="0.992188"/><stop stop-opacity="1" stop-color="rgb(36.172485%, 87.980652%, 90.237427%)" offset="0.996094"/><stop stop-opacity="1" stop-color="rgb(36.099243%, 88.198853%, 90.19928%)" offset="1"/></linearGradient><clipPath id="4d8b83c89e"><path d="M 242 39 L 246.746094 39 L 246.746094 193 L 242 193 Z M 242 39 " clip-rule="nonzero"/></clipPath><clipPath id="81551425be"><path d="M 116.996094 166 L 121 166 L 121 179 L 116.996094 179 Z M 116.996094 166 " clip-rule="nonzero"/></clipPath></defs><g clip-path="url(#cc38ce1167)"><rect x="-37.5" fill="url(#18e28495ae)" width="450" y="-37.499999" height="449.999989"/></g><g clip-path="url(#4d8b83c89e)"><path fill="#ffffff" d="M 242.757812 177.425781 C 242.757812 177.664062 242.980469 187.484375 243.339844 190.925781 C 243.519531 192.691406 243.734375 192.84375 243.972656 190.683594 C 244.207031 188.636719 244.464844 184.273438 244.742188 179.609375 C 244.75 179.472656 244.757812 179.339844 244.765625 179.207031 C 245.042969 174.539062 245.300781 170.066406 245.535156 167.816406 C 245.773438 165.457031 245.988281 165.320312 246.164062 166.726562 C 246.523438 169.445312 246.746094 178.277344 246.746094 177.417969 C 246.746094 136.300781 246.746094 95.183594 246.746094 54.070312 C 246.746094 53.835938 246.527344 44.015625 246.164062 40.570312 C 245.988281 38.800781 245.773438 38.652344 245.535156 40.808594 C 245.300781 42.859375 245.042969 47.21875 244.765625 51.886719 C 244.757812 52.019531 244.753906 52.152344 244.742188 52.289062 C 244.46875 56.953125 244.207031 61.429688 243.972656 63.675781 C 243.734375 66.039062 243.519531 66.171875 243.339844 64.765625 C 242.980469 62.046875 242.757812 53.214844 242.757812 54.074219 C 242.757812 95.195312 242.757812 136.308594 242.757812 177.425781 Z M 242.757812 177.425781 " fill-opacity="1" fill-rule="nonzero"/></g><path fill="#ffffff" d="M 236.5 188.125 C 236.5 188.378906 236.71875 199.039062 237.082031 202.773438 C 237.261719 204.691406 237.472656 204.859375 237.714844 202.515625 C 237.949219 200.292969 238.207031 195.558594 238.480469 190.492188 C 238.488281 190.351562 238.496094 190.203125 238.503906 190.058594 C 238.777344 184.996094 239.035156 180.140625 239.277344 177.699219 C 239.511719 175.140625 239.730469 174.988281 239.90625 176.515625 C 240.265625 179.46875 240.488281 189.054688 240.488281 188.125 C 240.488281 143.496094 240.488281 98.871094 240.488281 54.246094 C 240.488281 53.992188 240.261719 43.332031 239.90625 39.59375 C 239.726562 37.675781 239.511719 37.507812 239.277344 39.855469 C 239.039062 42.078125 238.78125 46.8125 238.503906 51.875 C 238.496094 52.023438 238.488281 52.164062 238.480469 52.3125 C 238.207031 57.375 237.949219 62.230469 237.714844 64.671875 C 237.472656 67.234375 237.261719 67.378906 237.082031 65.855469 C 236.722656 62.902344 236.5 53.316406 236.5 54.246094 C 236.5 98.871094 236.5 143.496094 236.5 188.125 Z M 236.5 188.125 " fill-opacity="1" fill-rule="nonzero"/><path fill="#ffffff" d="M 230.234375 197.054688 C 230.234375 197.308594 230.457031 207.96875 230.816406 211.707031 C 230.996094 213.625 231.210938 213.792969 231.445312 211.445312 C 231.679688 209.222656 231.945312 204.488281 232.21875 199.425781 C 232.222656 199.277344 232.234375 199.136719 232.238281 198.988281 C 232.511719 193.925781 232.777344 189.070312 233.011719 186.628906 C 233.246094 184.066406 233.460938 183.921875 233.644531 185.445312 C 234 188.402344 234.222656 197.984375 234.222656 197.054688 C 234.222656 152.429688 234.222656 107.804688 234.222656 63.179688 C 234.222656 62.917969 234 52.261719 233.644531 48.523438 C 233.460938 46.609375 233.246094 46.441406 233.011719 48.785156 C 232.777344 51.007812 232.511719 55.738281 232.238281 60.804688 C 232.234375 60.949219 232.222656 61.09375 232.21875 61.238281 C 231.945312 66.304688 231.683594 71.15625 231.445312 73.597656 C 231.210938 76.164062 230.992188 76.308594 230.816406 74.78125 C 230.457031 71.828125 230.234375 62.242188 230.234375 63.175781 C 230.234375 107.804688 230.234375 152.429688 230.234375 197.054688 Z M 230.234375 197.054688 " fill-opacity="1" fill-rule="nonzero"/><path fill="#ffffff" d="M 223.988281 201.671875 C 223.988281 202.136719 224.207031 205.96875 224.570312 207.433594 C 224.75 208.183594 224.960938 208.335938 225.199219 207.632812 C 225.4375 206.972656 225.695312 205.457031 225.96875 203.796875 C 225.976562 203.765625 225.980469 203.726562 225.988281 203.695312 C 226.261719 202.035156 226.519531 200.402344 226.761719 199.53125 C 226.996094 198.621094 227.210938 198.46875 227.390625 198.84375 C 227.746094 199.558594 227.972656 202.355469 227.972656 201.671875 C 227.972656 187.992188 227.972656 174.308594 227.972656 160.628906 C 227.972656 160.167969 227.746094 156.332031 227.390625 154.867188 C 227.210938 154.117188 226.996094 153.964844 226.761719 154.667969 C 226.523438 155.328125 226.265625 156.84375 225.988281 158.503906 C 225.980469 158.535156 225.976562 158.574219 225.96875 158.605469 C 225.695312 160.265625 225.4375 161.898438 225.199219 162.769531 C 224.960938 163.683594 224.75 163.832031 224.570312 163.460938 C 224.210938 162.742188 223.988281 159.945312 223.988281 160.628906 C 223.988281 174.3125 223.988281 187.992188 223.988281 201.671875 Z M 223.988281 201.671875 " fill-opacity="1" fill-rule="nonzero"/><path fill="#ffffff" d="M 217.753906 204.730469 C 217.753906 205.222656 217.976562 209.332031 218.335938 210.902344 C 218.511719 211.703125 218.726562 211.867188 218.964844 211.117188 C 219.199219 210.402344 219.457031 208.78125 219.734375 207.007812 C 219.742188 206.96875 219.746094 206.933594 219.753906 206.894531 C 220.027344 205.117188 220.289062 203.371094 220.527344 202.4375 C 220.761719 201.460938 220.976562 201.296875 221.15625 201.699219 C 221.511719 202.46875 221.734375 205.464844 221.734375 204.730469 C 221.734375 190.078125 221.734375 175.429688 221.734375 160.773438 C 221.734375 160.277344 221.511719 156.175781 221.15625 154.601562 C 220.976562 153.796875 220.761719 153.640625 220.527344 154.390625 C 220.289062 155.097656 220.03125 156.722656 219.753906 158.5 C 219.746094 158.535156 219.742188 158.574219 219.734375 158.613281 C 219.460938 160.390625 219.199219 162.132812 218.964844 163.070312 C 218.726562 164.046875 218.511719 164.207031 218.335938 163.808594 C 217.976562 163.039062 217.753906 160.042969 217.753906 160.773438 C 217.753906 175.425781 217.753906 190.078125 217.753906 204.730469 Z M 217.753906 204.730469 " fill-opacity="1" fill-rule="nonzero"/><path fill="#ffffff" d="M 211.503906 206.128906 C 211.503906 206.625 211.726562 210.726562 212.085938 212.296875 C 212.265625 213.101562 212.480469 213.265625 212.714844 212.507812 C 212.953125 211.800781 213.214844 210.175781 213.488281 208.398438 C 213.488281 208.363281 213.5 208.324219 213.507812 208.285156 C 213.78125 206.511719 214.039062 204.761719 214.277344 203.832031 C 214.515625 202.851562 214.726562 202.691406 214.90625 203.09375 C 215.265625 203.859375 215.488281 206.855469 215.488281 206.125 C 215.488281 191.472656 215.488281 176.820312 215.488281 162.167969 C 215.488281 161.671875 215.265625 157.570312 214.90625 155.996094 C 214.726562 155.195312 214.515625 155.03125 214.277344 155.785156 C 214.042969 156.492188 213.78125 158.117188 213.507812 159.894531 C 213.5 159.929688 213.492188 159.964844 213.488281 160.003906 C 213.214844 161.777344 212.953125 163.527344 212.714844 164.460938 C 212.480469 165.4375 212.265625 165.597656 212.085938 165.199219 C 211.726562 164.433594 211.503906 161.4375 211.503906 162.167969 C 211.503906 176.824219 211.503906 191.476562 211.503906 206.128906 Z M 211.503906 206.128906 " fill-opacity="1" fill-rule="nonzero"/><path fill="#ffffff" d="M 205.257812 207.894531 C 205.257812 208.390625 205.480469 212.496094 205.839844 214.066406 C 206.019531 214.871094 206.226562 215.03125 206.46875 214.277344 C 206.707031 213.570312 206.96875 211.945312 207.238281 210.167969 C 207.246094 210.132812 207.253906 210.09375 207.257812 210.054688 C 207.53125 208.28125 207.792969 206.53125 208.03125 205.597656 C 208.265625 204.621094 208.484375 204.460938 208.664062 204.863281 C 209.019531 205.628906 209.242188 208.625 209.242188 207.894531 C 209.242188 193.242188 209.242188 178.589844 209.242188 163.941406 C 209.242188 163.445312 209.019531 159.339844 208.664062 157.769531 C 208.484375 156.964844 208.265625 156.804688 208.03125 157.554688 C 207.792969 158.265625 207.535156 159.886719 207.257812 161.664062 C 207.253906 161.703125 207.246094 161.738281 207.238281 161.777344 C 206.964844 163.550781 206.707031 165.300781 206.46875 166.230469 C 206.230469 167.207031 206.019531 167.367188 205.839844 166.96875 C 205.480469 166.199219 205.257812 163.207031 205.257812 163.9375 C 205.257812 178.589844 205.257812 193.242188 205.257812 207.894531 Z M 205.257812 207.894531 " fill-opacity="1" fill-rule="nonzero"/><path fill="#ffffff" d="M 199.007812 208.054688 C 199.007812 208.511719 199.230469 212.324219 199.589844 213.78125 C 199.769531 214.527344 199.980469 214.675781 200.21875 213.980469 C 200.457031 213.320312 200.714844 211.8125 200.992188 210.164062 C 200.996094 210.132812 201 210.09375 201.011719 210.0625 C 201.285156 208.414062 201.542969 206.789062 201.78125 205.925781 C 202.019531 205.019531 202.230469 204.867188 202.410156 205.242188 C 202.773438 205.949219 202.996094 208.730469 202.996094 208.054688 C 202.996094 194.457031 202.996094 180.859375 202.996094 167.265625 C 202.996094 166.804688 202.773438 162.996094 202.410156 161.539062 C 202.230469 160.792969 202.023438 160.644531 201.78125 161.339844 C 201.542969 162 201.285156 163.503906 201.011719 165.152344 C 201.003906 165.1875 200.996094 165.222656 200.992188 165.257812 C 200.714844 166.90625 200.457031 168.527344 200.21875 169.394531 C 199.984375 170.296875 199.769531 170.449219 199.589844 170.078125 C 199.230469 169.367188 199.007812 166.585938 199.007812 167.265625 C 199.007812 180.859375 199.007812 194.457031 199.007812 208.054688 Z M 199.007812 208.054688 " fill-opacity="1" fill-rule="nonzero"/><path fill="#ffffff" d="M 193.046875 205.078125 C 193.046875 205.488281 193.253906 208.792969 193.589844 210.050781 C 193.757812 210.695312 193.957031 210.824219 194.175781 210.21875 C 194.394531 209.644531 194.640625 208.34375 194.894531 206.921875 C 195.148438 205.503906 195.386719 204.097656 195.613281 203.339844 C 195.835938 202.546875 196.035156 202.402344 196.199219 202.714844 C 196.535156 203.300781 196.742188 205.683594 196.742188 205.078125 C 196.742188 193.464844 196.742188 181.855469 196.742188 170.242188 C 196.742188 169.824219 196.535156 166.523438 196.199219 165.265625 C 196.035156 164.621094 195.835938 164.496094 195.613281 165.101562 C 195.390625 165.671875 195.148438 166.976562 194.894531 168.394531 C 194.640625 169.816406 194.398438 171.222656 194.175781 171.984375 C 193.957031 172.773438 193.753906 172.917969 193.589844 172.609375 C 193.253906 172.019531 193.050781 169.640625 193.046875 170.246094 C 193.046875 181.855469 193.046875 193.464844 193.046875 205.078125 Z M 193.046875 205.078125 " fill-opacity="1" fill-rule="nonzero"/><path fill="#ffffff" d="M 187.164062 203.277344 C 187.164062 203.722656 187.367188 206.398438 187.699219 207.453125 C 187.859375 207.992188 188.058594 208.125 188.273438 207.675781 C 188.488281 207.253906 188.726562 206.253906 188.976562 205.152344 C 189.222656 204.050781 189.464844 202.945312 189.675781 202.335938 C 189.890625 201.699219 190.089844 201.554688 190.25 201.757812 C 190.578125 202.136719 190.78125 203.871094 190.78125 203.277344 C 190.78125 194.5625 190.78125 185.847656 190.78125 177.132812 C 190.78125 176.691406 190.578125 174.019531 190.25 172.960938 C 190.089844 172.421875 189.890625 172.292969 189.675781 172.738281 C 189.460938 173.160156 189.222656 174.15625 188.976562 175.257812 C 188.726562 176.359375 188.488281 177.464844 188.273438 178.074219 C 188.058594 178.714844 187.859375 178.855469 187.699219 178.65625 C 187.371094 178.28125 187.164062 176.546875 187.164062 177.132812 C 187.164062 185.851562 187.164062 194.566406 187.164062 203.277344 Z M 187.164062 203.277344 " fill-opacity="1" fill-rule="nonzero"/><path fill="#ffffff" d="M 181.253906 197.074219 C 181.253906 197.464844 181.457031 199.234375 181.789062 199.871094 C 182.117188 200.617188 182.574219 200.230469 183.074219 198.894531 C 183.578125 197.5625 184.035156 196.769531 184.367188 196.855469 C 184.695312 196.832031 184.902344 197.6875 184.902344 197.074219 C 184.902344 192.996094 184.902344 188.921875 184.902344 184.839844 C 184.902344 184.449219 184.695312 182.679688 184.367188 182.042969 C 184.035156 181.296875 183.578125 181.683594 183.074219 183.015625 C 182.574219 184.347656 182.117188 185.144531 181.789062 185.058594 C 181.457031 185.085938 181.253906 184.222656 181.253906 184.839844 C 181.253906 188.921875 181.253906 192.996094 181.253906 197.074219 Z M 181.253906 197.074219 " fill-opacity="1" fill-rule="nonzero"/><path fill="#ffffff" d="M 223.988281 116.613281 C 223.988281 116.929688 224.207031 119.433594 224.570312 119.613281 C 224.75 119.71875 224.960938 119.226562 225.199219 117.972656 C 225.4375 116.746094 225.695312 114.761719 225.96875 112.609375 C 225.976562 112.566406 225.980469 112.519531 225.988281 112.472656 C 226.261719 110.324219 226.519531 108.253906 226.761719 106.878906 C 226.996094 105.480469 227.210938 104.765625 227.390625 104.609375 C 227.746094 104.261719 227.972656 106.03125 227.972656 105.539062 C 227.972656 97.390625 227.972656 89.238281 227.972656 81.085938 C 227.972656 80.769531 227.746094 78.269531 227.390625 78.085938 C 227.210938 77.980469 226.996094 78.472656 226.761719 79.726562 C 226.523438 80.953125 226.265625 82.9375 225.988281 85.085938 C 225.980469 85.132812 225.976562 85.183594 225.96875 85.222656 C 225.695312 87.375 225.4375 89.441406 225.199219 90.816406 C 224.960938 92.21875 224.75 92.925781 224.570312 93.089844 C 224.210938 93.4375 223.988281 91.667969 223.988281 92.164062 C 223.988281 100.3125 223.988281 108.460938 223.988281 116.613281 Z M 223.988281 116.613281 " fill-opacity="1" fill-rule="nonzero"/><path fill="#ffffff" d="M 217.753906 129.042969 C 217.753906 129.664062 217.976562 134.589844 218.335938 134.949219 C 218.511719 135.15625 218.726562 134.179688 218.964844 131.710938 C 219.199219 129.304688 219.457031 125.386719 219.734375 121.160156 C 219.742188 121.066406 219.746094 120.980469 219.753906 120.890625 C 220.027344 116.652344 220.289062 112.585938 220.527344 109.882812 C 220.761719 107.125 220.976562 105.722656 221.15625 105.410156 C 221.511719 104.726562 221.734375 108.210938 221.734375 107.242188 C 221.734375 91.199219 221.734375 75.15625 221.734375 59.109375 C 221.734375 58.488281 221.511719 53.566406 221.15625 53.203125 C 220.976562 52.996094 220.761719 53.972656 220.527344 56.445312 C 220.289062 58.851562 220.03125 62.757812 219.753906 67 C 219.746094 67.089844 219.742188 67.175781 219.734375 67.269531 C 219.460938 71.496094 219.199219 75.574219 218.964844 78.269531 C 218.726562 81.03125 218.511719 82.425781 218.335938 82.742188 C 217.976562 83.425781 217.753906 79.945312 217.753906 80.917969 C 217.753906 96.960938 217.753906 113.003906 217.753906 129.042969 Z M 217.753906 129.042969 " fill-opacity="1" fill-rule="nonzero"/><path fill="#ffffff" d="M 211.503906 147.839844 C 211.503906 148.421875 211.726562 153.039062 212.085938 153.371094 C 212.265625 153.5625 212.480469 152.648438 212.714844 150.335938 C 212.953125 148.082031 213.214844 144.421875 213.488281 140.449219 C 213.488281 140.359375 213.5 140.28125 213.507812 140.195312 C 213.78125 136.234375 214.039062 132.410156 214.277344 129.886719 C 214.515625 127.296875 214.726562 125.992188 214.90625 125.695312 C 215.265625 125.058594 215.488281 128.320312 215.488281 127.410156 C 215.488281 112.382812 215.488281 97.347656 215.488281 82.316406 C 215.488281 81.734375 215.265625 77.125 214.90625 76.78125 C 214.726562 76.585938 214.515625 77.5 214.277344 79.808594 C 214.042969 82.0625 213.78125 85.734375 213.507812 89.695312 C 213.5 89.78125 213.492188 89.859375 213.488281 89.949219 C 213.214844 93.917969 212.953125 97.730469 212.714844 100.257812 C 212.480469 102.84375 212.265625 104.152344 212.085938 104.453125 C 211.726562 105.097656 211.503906 101.828125 211.503906 102.738281 C 211.503906 117.777344 211.503906 132.8125 211.503906 147.839844 Z M 211.503906 147.839844 " fill-opacity="1" fill-rule="nonzero"/><path fill="#ffffff" d="M 205.257812 154.339844 C 205.257812 154.769531 205.480469 158.15625 205.839844 158.402344 C 206.019531 158.542969 206.226562 157.871094 206.46875 156.171875 C 206.707031 154.511719 206.96875 151.820312 207.238281 148.914062 C 207.246094 148.851562 207.253906 148.792969 207.257812 148.730469 C 207.53125 145.816406 207.792969 143.015625 208.03125 141.160156 C 208.265625 139.261719 208.484375 138.296875 208.664062 138.082031 C 209.019531 137.613281 209.242188 140.007812 209.242188 139.339844 C 209.242188 128.300781 209.242188 117.265625 209.242188 106.226562 C 209.242188 105.796875 209.019531 102.414062 208.664062 102.160156 C 208.484375 102.019531 208.265625 102.691406 208.03125 104.390625 C 207.792969 106.046875 207.535156 108.738281 207.257812 111.648438 C 207.253906 111.714844 207.246094 111.769531 207.238281 111.835938 C 206.964844 114.742188 206.707031 117.542969 206.46875 119.40625 C 206.230469 121.304688 206.019531 122.265625 205.839844 122.484375 C 205.480469 122.957031 205.257812 120.558594 205.257812 121.226562 C 205.257812 132.265625 205.257812 143.304688 205.257812 154.339844 Z M 205.257812 154.339844 " fill-opacity="1" fill-rule="nonzero"/><path fill="#ffffff" d="M 199.007812 139.253906 C 199.007812 139.679688 199.230469 143.070312 199.589844 143.316406 C 199.769531 143.460938 199.980469 142.789062 200.21875 141.089844 C 200.457031 139.433594 200.714844 136.746094 200.992188 133.832031 C 200.996094 133.769531 201 133.710938 201.011719 133.644531 C 201.285156 130.738281 201.542969 127.9375 201.78125 126.074219 C 202.019531 124.175781 202.230469 123.214844 202.410156 123 C 202.773438 122.523438 202.996094 124.925781 202.996094 124.253906 C 202.996094 113.21875 202.996094 102.179688 202.996094 91.144531 C 202.996094 90.714844 202.773438 87.328125 202.410156 87.082031 C 202.230469 86.9375 202.023438 87.609375 201.78125 89.308594 C 201.542969 90.972656 201.285156 93.660156 201.011719 96.566406 C 201.003906 96.632812 200.996094 96.6875 200.992188 96.75 C 200.714844 99.667969 200.457031 102.464844 200.21875 104.320312 C 199.984375 106.21875 199.769531 107.179688 199.589844 107.398438 C 199.230469 107.871094 199.007812 105.472656 199.007812 106.140625 C 199.007812 117.179688 199.007812 128.21875 199.007812 139.253906 Z M 199.007812 139.253906 " fill-opacity="1" fill-rule="nonzero"/><path fill="#ffffff" d="M 192.773438 128.753906 C 192.773438 129.039062 192.996094 131.300781 193.355469 131.46875 C 193.535156 131.5625 193.75 131.113281 193.984375 129.980469 C 194.222656 128.871094 194.480469 127.078125 194.757812 125.132812 C 194.761719 125.097656 194.765625 125.054688 194.769531 125.015625 C 195.042969 123.074219 195.304688 121.203125 195.542969 119.960938 C 195.777344 118.691406 195.992188 118.054688 196.171875 117.90625 C 196.527344 117.59375 196.75 119.191406 196.75 118.746094 C 196.75 111.382812 196.75 104.015625 196.75 96.652344 C 196.75 96.363281 196.53125 94.105469 196.171875 93.9375 C 195.992188 93.84375 195.777344 94.289062 195.542969 95.425781 C 195.304688 96.535156 195.042969 98.332031 194.769531 100.273438 C 194.765625 100.308594 194.761719 100.351562 194.757812 100.390625 C 194.480469 102.335938 194.222656 104.207031 193.984375 105.441406 C 193.75 106.714844 193.535156 107.351562 193.355469 107.5 C 192.996094 107.8125 192.773438 106.214844 192.773438 106.660156 C 192.773438 114.023438 192.773438 121.390625 192.773438 128.753906 Z M 192.773438 128.753906 " fill-opacity="1" fill-rule="nonzero"/><path fill="#ffffff" d="M 186.523438 132.824219 C 186.523438 133.253906 186.742188 136.632812 187.105469 136.886719 C 187.285156 137.023438 187.5 136.355469 187.734375 134.65625 C 187.972656 132.992188 188.234375 130.304688 188.503906 127.394531 C 188.507812 127.339844 188.515625 127.273438 188.523438 127.207031 C 188.796875 124.296875 189.054688 121.5 189.292969 119.644531 C 189.53125 117.738281 189.746094 116.785156 189.925781 116.558594 C 190.285156 116.09375 190.507812 118.488281 190.507812 117.820312 C 190.507812 106.78125 190.507812 95.746094 190.507812 84.707031 C 190.507812 84.277344 190.285156 80.894531 189.925781 80.636719 C 189.746094 80.5 189.53125 81.167969 189.296875 82.867188 C 189.058594 84.527344 188.796875 87.21875 188.527344 90.128906 C 188.519531 90.191406 188.515625 90.253906 188.507812 90.308594 C 188.238281 93.21875 187.976562 96.019531 187.738281 97.882812 C 187.5 99.785156 187.289062 100.746094 187.109375 100.96875 C 186.75 101.4375 186.527344 99.039062 186.527344 99.707031 C 186.523438 110.75 186.523438 121.785156 186.523438 132.824219 Z M 186.523438 132.824219 " fill-opacity="1" fill-rule="nonzero"/><path fill="#ffffff" d="M 180.097656 114.285156 C 180.101562 114.710938 180.324219 118.101562 180.683594 118.351562 C 180.863281 118.488281 181.070312 117.820312 181.308594 116.121094 C 181.550781 114.460938 181.808594 111.769531 182.082031 108.855469 C 182.085938 108.796875 182.09375 108.734375 182.101562 108.679688 C 182.375 105.761719 182.636719 102.960938 182.875 101.105469 C 183.113281 99.203125 183.320312 98.246094 183.5 98.027344 C 183.859375 97.554688 184.085938 99.953125 184.085938 99.285156 C 184.085938 88.246094 184.085938 77.210938 184.085938 66.171875 C 184.085938 65.742188 183.859375 62.351562 183.5 62.109375 C 183.324219 61.972656 183.113281 62.632812 182.875 64.339844 C 182.636719 65.992188 182.375 68.679688 182.101562 71.597656 C 182.09375 71.65625 182.089844 71.714844 182.082031 71.777344 C 181.808594 74.691406 181.550781 77.492188 181.308594 79.355469 C 181.074219 81.253906 180.863281 82.207031 180.683594 82.429688 C 180.324219 82.902344 180.097656 80.5 180.097656 81.167969 C 180.097656 92.207031 180.097656 103.246094 180.097656 114.285156 Z M 180.097656 114.285156 " fill-opacity="1" fill-rule="nonzero"/><path fill="#ffffff" d="M 174.117188 166.535156 C 174.117188 166.785156 174.328125 175.164062 174.664062 178.078125 C 174.832031 179.570312 175.03125 179.6875 175.253906 177.835938 C 175.476562 176.078125 175.722656 172.351562 175.976562 168.394531 C 176.234375 164.4375 176.480469 160.609375 176.703125 158.667969 C 176.921875 156.625 177.128906 156.46875 177.289062 157.628906 C 177.628906 159.867188 177.835938 167.316406 177.835938 166.542969 C 177.835938 131.988281 177.835938 97.4375 177.835938 62.886719 C 177.835938 62.636719 177.628906 54.257812 177.289062 51.34375 C 177.128906 49.847656 176.921875 49.734375 176.703125 51.585938 C 176.484375 53.34375 176.238281 57.070312 175.976562 61.027344 C 175.722656 64.984375 175.476562 68.8125 175.253906 70.757812 C 175.03125 72.796875 174.832031 72.957031 174.664062 71.796875 C 174.328125 69.558594 174.117188 62.105469 174.117188 62.882812 C 174.117188 97.433594 174.117188 131.988281 174.117188 166.535156 Z M 174.117188 166.535156 " fill-opacity="1" fill-rule="nonzero"/><path fill="#ffffff" d="M 168.144531 175.875 C 168.144531 176.144531 168.347656 185.265625 168.683594 188.4375 C 168.855469 190.066406 169.054688 190.191406 169.273438 188.171875 C 169.496094 186.257812 169.742188 182.203125 170 177.894531 C 170.25 173.585938 170.496094 169.417969 170.71875 167.300781 C 170.941406 165.082031 171.140625 164.910156 171.308594 166.171875 C 171.640625 168.605469 171.851562 176.71875 171.851562 175.875 C 171.851562 138.265625 171.851562 100.65625 171.851562 63.042969 C 171.851562 62.773438 171.644531 53.65625 171.308594 50.484375 C 171.140625 48.851562 170.941406 48.730469 170.71875 50.75 C 170.496094 52.660156 170.25 56.714844 170 61.023438 C 169.738281 65.332031 169.496094 69.5 169.273438 71.617188 C 169.054688 73.835938 168.851562 74.007812 168.683594 72.746094 C 168.347656 70.3125 168.144531 62.199219 168.144531 63.042969 C 168.144531 100.65625 168.144531 138.265625 168.144531 175.875 Z M 168.144531 175.875 " fill-opacity="1" fill-rule="nonzero"/><path fill="#ffffff" d="M 162.160156 180.8125 C 162.160156 181.070312 162.371094 189.828125 162.707031 192.871094 C 162.875 194.433594 163.074219 194.554688 163.296875 192.617188 C 163.519531 190.78125 163.765625 186.886719 164.019531 182.75 C 164.277344 178.609375 164.523438 174.609375 164.742188 172.578125 C 164.964844 170.445312 165.164062 170.28125 165.332031 171.496094 C 165.667969 173.832031 165.875 181.621094 165.875 180.8125 C 165.875 144.695312 165.875 108.582031 165.875 72.464844 C 165.875 72.207031 165.667969 63.445312 165.332031 60.402344 C 165.164062 58.839844 164.964844 58.71875 164.742188 60.65625 C 164.523438 62.496094 164.277344 66.386719 164.019531 70.523438 C 163.765625 74.660156 163.519531 78.664062 163.296875 80.695312 C 163.074219 82.828125 162.875 82.992188 162.707031 81.78125 C 162.371094 79.445312 162.160156 71.652344 162.160156 72.464844 C 162.160156 108.582031 162.160156 144.699219 162.160156 180.8125 Z M 162.160156 180.8125 " fill-opacity="1" fill-rule="nonzero"/><path fill="#ffffff" d="M 156.4375 184.191406 C 156.4375 184.566406 156.636719 188.078125 156.949219 189.398438 C 157.105469 190.070312 157.289062 190.1875 157.496094 189.515625 C 157.707031 188.882812 157.933594 187.457031 158.171875 185.914062 C 158.40625 184.371094 158.636719 182.851562 158.84375 182.042969 C 159.050781 181.195312 159.230469 181.0625 159.386719 181.421875 C 159.703125 182.113281 159.894531 184.769531 159.894531 184.191406 C 159.894531 171.386719 159.894531 158.589844 159.894531 145.792969 C 159.894531 145.417969 159.699219 141.902344 159.386719 140.585938 C 159.230469 139.910156 159.050781 139.792969 158.84375 140.464844 C 158.632812 141.101562 158.40625 142.523438 158.171875 144.0625 C 157.933594 145.605469 157.707031 147.125 157.496094 147.9375 C 157.292969 148.785156 157.105469 148.917969 156.949219 148.554688 C 156.636719 147.867188 156.4375 145.210938 156.4375 145.792969 C 156.4375 158.589844 156.4375 171.390625 156.4375 184.191406 Z M 156.4375 184.191406 " fill-opacity="1" fill-rule="nonzero"/><path fill="#ffffff" d="M 150.558594 187.195312 C 150.558594 187.59375 150.75 191.355469 151.0625 192.765625 C 151.21875 193.488281 151.40625 193.613281 151.609375 192.894531 C 151.820312 192.214844 152.046875 190.695312 152.285156 189.042969 C 152.523438 187.390625 152.75 185.765625 152.957031 184.90625 C 153.167969 184 153.351562 183.855469 153.507812 184.238281 C 153.820312 184.976562 154.011719 187.816406 154.011719 187.199219 C 154.011719 173.507812 154.011719 159.816406 154.011719 146.128906 C 154.011719 145.730469 153.820312 141.964844 153.507812 140.558594 C 153.351562 139.835938 153.164062 139.710938 152.957031 140.429688 C 152.75 141.105469 152.527344 142.628906 152.285156 144.28125 C 152.046875 145.929688 151.820312 147.558594 151.609375 148.421875 C 151.40625 149.328125 151.222656 149.46875 151.0625 149.085938 C 150.753906 148.347656 150.558594 145.507812 150.558594 146.132812 C 150.558594 159.8125 150.558594 173.503906 150.558594 187.195312 Z M 150.558594 187.195312 " fill-opacity="1" fill-rule="nonzero"/><path fill="#ffffff" d="M 144.839844 189.089844 C 144.839844 189.492188 145.03125 193.292969 145.34375 194.714844 C 145.5 195.445312 145.6875 195.570312 145.890625 194.847656 C 146.097656 194.160156 146.324219 192.621094 146.5625 190.957031 C 146.800781 189.285156 147.027344 187.644531 147.234375 186.773438 C 147.441406 185.859375 147.628906 185.710938 147.785156 186.105469 C 148.097656 186.851562 148.289062 189.71875 148.289062 189.089844 C 148.289062 175.261719 148.289062 161.429688 148.289062 147.597656 C 148.289062 147.195312 148.097656 143.394531 147.785156 141.972656 C 147.628906 141.242188 147.441406 141.117188 147.234375 141.839844 C 147.027344 142.527344 146.800781 144.066406 146.5625 145.730469 C 146.328125 147.398438 146.097656 149.042969 145.890625 149.917969 C 145.683594 150.832031 145.5 150.980469 145.34375 150.585938 C 145.03125 149.84375 144.839844 146.972656 144.839844 147.597656 C 144.839844 161.429688 144.839844 175.261719 144.839844 189.089844 Z M 144.839844 189.089844 " fill-opacity="1" fill-rule="nonzero"/><path fill="#ffffff" d="M 139.117188 188.417969 C 139.117188 188.808594 139.3125 192.449219 139.625 193.816406 C 139.78125 194.515625 139.964844 194.636719 140.171875 193.941406 C 140.378906 193.285156 140.605469 191.8125 140.84375 190.210938 C 141.085938 188.613281 141.308594 187.035156 141.519531 186.199219 C 141.722656 185.324219 141.910156 185.179688 142.066406 185.554688 C 142.378906 186.269531 142.574219 189.019531 142.574219 188.417969 C 142.574219 175.160156 142.574219 161.894531 142.574219 148.636719 C 142.574219 148.246094 142.378906 144.605469 142.066406 143.238281 C 141.910156 142.539062 141.726562 142.421875 141.519531 143.117188 C 141.308594 143.773438 141.085938 145.25 140.84375 146.847656 C 140.609375 148.445312 140.378906 150.019531 140.171875 150.855469 C 139.964844 151.734375 139.78125 151.871094 139.625 151.496094 C 139.308594 150.78125 139.117188 148.03125 139.117188 148.636719 C 139.117188 161.894531 139.117188 175.160156 139.117188 188.417969 Z M 139.117188 188.417969 " fill-opacity="1" fill-rule="nonzero"/><path fill="#ffffff" d="M 133.496094 187.363281 C 133.496094 187.734375 133.6875 191.015625 133.988281 192.25 C 134.140625 192.882812 134.320312 192.996094 134.519531 192.375 C 134.71875 191.789062 134.941406 190.472656 135.171875 189.039062 C 135.40625 187.609375 135.628906 186.199219 135.828125 185.441406 C 136.027344 184.65625 136.207031 184.523438 136.359375 184.851562 C 136.664062 185.480469 136.851562 187.921875 136.851562 187.363281 C 136.851562 175.539062 136.851562 163.71875 136.851562 151.898438 C 136.851562 151.527344 136.660156 148.246094 136.359375 147.011719 C 136.207031 146.378906 136.027344 146.265625 135.828125 146.886719 C 135.628906 147.472656 135.40625 148.789062 135.171875 150.222656 C 134.941406 151.652344 134.71875 153.0625 134.519531 153.820312 C 134.320312 154.605469 134.136719 154.734375 133.988281 154.410156 C 133.6875 153.78125 133.496094 151.339844 133.496094 151.898438 C 133.496094 163.71875 133.496094 175.542969 133.496094 187.363281 Z M 133.496094 187.363281 " fill-opacity="1" fill-rule="nonzero"/><path fill="#ffffff" d="M 128.101562 186.09375 C 128.101562 186.449219 128.277344 189.203125 128.5625 190.253906 C 128.703125 190.792969 128.871094 190.902344 129.058594 190.398438 C 129.246094 189.925781 129.449219 188.839844 129.664062 187.660156 C 129.882812 186.480469 130.089844 185.308594 130.273438 184.679688 C 130.460938 184.015625 130.628906 183.898438 130.769531 184.152344 C 131.050781 184.636719 131.230469 186.609375 131.230469 186.097656 C 131.230469 176.460938 131.230469 166.824219 131.230469 157.179688 C 131.230469 156.828125 131.054688 154.074219 130.769531 153.023438 C 130.628906 152.484375 130.457031 152.378906 130.273438 152.882812 C 130.085938 153.355469 129.882812 154.4375 129.664062 155.621094 C 129.449219 156.800781 129.242188 157.972656 129.058594 158.601562 C 128.871094 159.265625 128.703125 159.382812 128.5625 159.128906 C 128.277344 158.648438 128.101562 156.671875 128.101562 157.183594 C 128.101562 166.816406 128.101562 176.457031 128.101562 186.09375 Z M 128.101562 186.09375 " fill-opacity="1" fill-rule="nonzero"/><path fill="#ffffff" d="M 122.550781 182.273438 C 122.550781 182.652344 122.734375 184.730469 123.03125 185.566406 C 123.179688 185.996094 123.359375 186.101562 123.550781 185.769531 C 123.75 185.453125 123.964844 184.695312 124.1875 183.855469 C 124.414062 183.011719 124.632812 182.164062 124.828125 181.6875 C 125.023438 181.195312 125.203125 181.074219 125.351562 181.21875 C 125.644531 181.480469 125.832031 182.765625 125.832031 182.273438 C 125.832031 175.710938 125.832031 169.148438 125.832031 162.585938 C 125.832031 162.207031 125.648438 160.128906 125.351562 159.296875 C 125.199219 158.871094 125.023438 158.757812 124.828125 159.09375 C 124.632812 159.40625 124.414062 160.167969 124.1875 161.007812 C 123.964844 161.847656 123.746094 162.695312 123.550781 163.171875 C 123.359375 163.664062 123.179688 163.785156 123.03125 163.648438 C 122.734375 163.382812 122.550781 162.09375 122.550781 162.585938 C 122.550781 169.148438 122.550781 175.710938 122.550781 182.273438 Z M 122.550781 182.273438 " fill-opacity="1" fill-rule="nonzero"/><g clip-path="url(#81551425be)"><path fill="#ffffff" d="M 116.996094 176.253906 C 116.996094 176.636719 117.179688 177.90625 117.480469 178.402344 C 117.777344 178.96875 118.1875 178.769531 118.640625 177.894531 C 119.09375 177.019531 119.503906 176.453125 119.800781 176.429688 C 120.101562 176.332031 120.28125 176.777344 120.28125 176.253906 C 120.28125 173.886719 120.28125 171.519531 120.28125 169.152344 C 120.285156 168.773438 120.101562 167.5 119.800781 167.003906 C 119.503906 166.433594 119.09375 166.636719 118.640625 167.511719 C 118.183594 168.386719 117.777344 168.953125 117.480469 168.976562 C 117.179688 169.078125 116.996094 168.628906 116.996094 169.152344 C 116.996094 171.519531 116.996094 173.886719 116.996094 176.253906 Z M 116.996094 176.253906 " fill-opacity="1" fill-rule="nonzero"/></g><g fill="#ffffff" fill-opacity="1"><g transform="translate(52.514012, 271.953314)"><g><path d="M 18.992188 -22.023438 L 28.4375 -35.933594 L 35.316406 -35.933594 L 35.316406 0 L 26.589844 0 L 26.589844 -17.761719 L 21.40625 -10.113281 L 16.53125 -10.113281 L 11.34375 -17.863281 L 11.34375 0 L 2.566406 0 L 2.566406 -35.933594 L 9.546875 -35.933594 Z M 18.992188 -22.023438 "/></g></g></g><g fill="#ffffff" fill-opacity="1"><g transform="translate(88.131616, 271.953314)"><g><path d="M 29.824219 -13.859375 C 29.824219 -11.394531 29.40625 -9.238281 28.566406 -7.390625 C 27.730469 -5.542969 26.609375 -4.003906 25.207031 -2.773438 C 23.800781 -1.539062 22.21875 -0.617188 20.457031 0 C 18.695312 0.617188 16.890625 0.925781 15.039062 0.925781 C 13.191406 0.925781 11.386719 0.617188 9.625 0 C 7.863281 -0.617188 6.269531 -1.539062 4.851562 -2.773438 C 3.429688 -4.003906 2.300781 -5.542969 1.464844 -7.390625 C 0.625 -9.238281 0.207031 -11.394531 0.207031 -13.859375 C 0.207031 -16.324219 0.625 -18.488281 1.464844 -20.355469 C 2.300781 -22.21875 3.421875 -23.769531 4.824219 -25 C 6.230469 -26.230469 7.820312 -27.15625 9.597656 -27.773438 C 11.378906 -28.386719 13.191406 -28.695312 15.039062 -28.695312 C 16.890625 -28.695312 18.695312 -28.386719 20.457031 -27.773438 C 22.21875 -27.15625 23.800781 -26.230469 25.207031 -25 C 26.609375 -23.769531 27.730469 -22.21875 28.566406 -20.355469 C 29.40625 -18.488281 29.824219 -16.324219 29.824219 -13.859375 Z M 8.316406 -13.859375 C 8.316406 -12.320312 8.640625 -11.027344 9.292969 -9.984375 C 9.941406 -8.941406 10.78125 -8.164062 11.808594 -7.648438 C 12.832031 -7.136719 13.910156 -6.878906 15.039062 -6.878906 C 16.171875 -6.878906 17.238281 -7.136719 18.25 -7.648438 C 19.257812 -8.164062 20.089844 -8.941406 20.738281 -9.984375 C 21.390625 -11.027344 21.714844 -12.320312 21.714844 -13.859375 C 21.714844 -16.222656 21.0625 -17.992188 19.761719 -19.171875 C 18.464844 -20.355469 16.890625 -20.945312 15.039062 -20.945312 C 13.910156 -20.945312 12.832031 -20.679688 11.808594 -20.148438 C 10.78125 -19.617188 9.941406 -18.832031 9.292969 -17.789062 C 8.640625 -16.742188 8.316406 -15.433594 8.316406 -13.859375 Z M 8.316406 -13.859375 "/></g></g></g><g fill="#ffffff" fill-opacity="1"><g transform="translate(118.155002, 271.953314)"><g><path d="M 29.824219 -13.859375 C 29.824219 -11.394531 29.40625 -9.238281 28.566406 -7.390625 C 27.730469 -5.542969 26.609375 -4.003906 25.207031 -2.773438 C 23.800781 -1.539062 22.21875 -0.617188 20.457031 0 C 18.695312 0.617188 16.890625 0.925781 15.039062 0.925781 C 13.191406 0.925781 11.386719 0.617188 9.625 0 C 7.863281 -0.617188 6.269531 -1.539062 4.851562 -2.773438 C 3.429688 -4.003906 2.300781 -5.542969 1.464844 -7.390625 C 0.625 -9.238281 0.207031 -11.394531 0.207031 -13.859375 C 0.207031 -16.324219 0.625 -18.488281 1.464844 -20.355469 C 2.300781 -22.21875 3.421875 -23.769531 4.824219 -25 C 6.230469 -26.230469 7.820312 -27.15625 9.597656 -27.773438 C 11.378906 -28.386719 13.191406 -28.695312 15.039062 -28.695312 C 16.890625 -28.695312 18.695312 -28.386719 20.457031 -27.773438 C 22.21875 -27.15625 23.800781 -26.230469 25.207031 -25 C 26.609375 -23.769531 27.730469 -22.21875 28.566406 -20.355469 C 29.40625 -18.488281 29.824219 -16.324219 29.824219 -13.859375 Z M 8.316406 -13.859375 C 8.316406 -12.320312 8.640625 -11.027344 9.292969 -9.984375 C 9.941406 -8.941406 10.78125 -8.164062 11.808594 -7.648438 C 12.832031 -7.136719 13.910156 -6.878906 15.039062 -6.878906 C 16.171875 -6.878906 17.238281 -7.136719 18.25 -7.648438 C 19.257812 -8.164062 20.089844 -8.941406 20.738281 -9.984375 C 21.390625 -11.027344 21.714844 -12.320312 21.714844 -13.859375 C 21.714844 -16.222656 21.0625 -17.992188 19.761719 -19.171875 C 18.464844 -20.355469 16.890625 -20.945312 15.039062 -20.945312 C 13.910156 -20.945312 12.832031 -20.679688 11.808594 -20.148438 C 10.78125 -19.617188 9.941406 -18.832031 9.292969 -17.789062 C 8.640625 -16.742188 8.316406 -15.433594 8.316406 -13.859375 Z M 8.316406 -13.859375 "/></g></g></g><g fill="#ffffff" fill-opacity="1"><g transform="translate(148.178388, 271.953314)"><g><path d="M 14.167969 -28.234375 C 15.539062 -28.234375 16.847656 -28.003906 18.09375 -27.539062 C 19.34375 -27.078125 20.429688 -26.316406 21.355469 -25.257812 L 21.355469 -36.191406 L 29.414062 -36.191406 L 29.414062 0 L 21.355469 0 L 21.355469 -2.773438 C 20.398438 -1.609375 19.277344 -0.796875 17.992188 -0.332031 C 16.710938 0.128906 15.398438 0.359375 14.066406 0.359375 C 11.15625 0.359375 8.710938 -0.324219 6.726562 -1.695312 C 4.738281 -3.0625 3.242188 -4.867188 2.234375 -7.109375 C 1.222656 -9.351562 0.71875 -11.738281 0.71875 -14.269531 C 0.71875 -16.804688 1.214844 -19.128906 2.207031 -21.253906 C 3.199219 -23.375 4.6875 -25.066406 6.671875 -26.335938 C 8.660156 -27.601562 11.15625 -28.234375 14.167969 -28.234375 Z M 15.039062 -7.390625 C 16.203125 -7.390625 17.265625 -7.691406 18.222656 -8.289062 C 19.183594 -8.890625 19.941406 -9.695312 20.507812 -10.703125 C 21.074219 -11.710938 21.355469 -12.832031 21.355469 -14.066406 C 21.355469 -15.296875 21.074219 -16.425781 20.507812 -17.453125 C 19.941406 -18.480469 19.183594 -19.292969 18.222656 -19.890625 C 17.265625 -20.492188 16.203125 -20.789062 15.039062 -20.789062 C 13.671875 -20.789062 12.527344 -20.464844 11.601562 -19.816406 C 10.675781 -19.164062 9.984375 -18.328125 9.523438 -17.300781 C 9.058594 -16.273438 8.828125 -15.195312 8.828125 -14.066406 C 8.828125 -12.96875 9.058594 -11.910156 9.523438 -10.882812 C 9.984375 -9.855469 10.675781 -9.019531 11.601562 -8.367188 C 12.527344 -7.71875 13.671875 -7.390625 15.039062 -7.390625 Z M 15.039062 -7.390625 "/></g></g></g><g fill="#ffffff" fill-opacity="1"><g transform="translate(178.714998, 271.953314)"><g><path d="M 29.824219 -36.34375 L 29.824219 -28.132812 L 20.175781 -28.132812 L 20.175781 0 L 11.394531 0 L 11.394531 -28.132812 L 1.695312 -28.132812 L 1.695312 -36.34375 Z M 29.824219 -36.34375 "/></g></g></g><g fill="#ffffff" fill-opacity="1"><g transform="translate(208.430445, 271.953314)"><g><path d="M 19.25 -2.824219 C 18.292969 -1.625 17.152344 -0.796875 15.835938 -0.332031 C 14.519531 0.128906 13.140625 0.359375 11.703125 0.359375 C 9 0.359375 6.894531 -0.222656 5.390625 -1.386719 C 3.882812 -2.550781 2.839844 -4.105469 2.257812 -6.058594 C 1.675781 -8.007812 1.386719 -10.148438 1.386719 -12.472656 L 1.386719 -27.773438 L 9.546875 -27.773438 L 9.546875 -12.527344 C 9.546875 -10.609375 10 -9.199219 10.910156 -8.289062 C 11.816406 -7.382812 12.816406 -6.929688 13.910156 -6.929688 C 15.109375 -6.929688 16.230469 -7.425781 17.273438 -8.417969 C 18.316406 -9.410156 18.839844 -10.832031 18.839844 -12.679688 L 18.839844 -27.773438 L 27.414062 -27.773438 L 27.414062 0 L 19.25 0 Z M 19.25 -2.824219 "/></g></g></g><g fill="#ffffff" fill-opacity="1"><g transform="translate(236.965456, 271.953314)"><g><path d="M 9.34375 -25 C 10.335938 -26.230469 11.585938 -27.070312 13.089844 -27.515625 C 14.597656 -27.960938 16.085938 -28.183594 17.554688 -28.183594 C 20.191406 -28.148438 22.234375 -27.539062 23.691406 -26.359375 C 25.144531 -25.179688 26.164062 -23.621094 26.746094 -21.6875 C 27.328125 -19.753906 27.601562 -17.625 27.566406 -15.296875 L 27.566406 0 L 19.351562 0 L 19.351562 -15.246094 C 19.351562 -17.128906 18.90625 -18.507812 18.019531 -19.378906 C 17.128906 -20.25 16.136719 -20.6875 15.039062 -20.6875 C 14.253906 -20.6875 13.449219 -20.464844 12.628906 -20.019531 C 11.808594 -19.574219 11.121094 -18.941406 10.574219 -18.121094 C 10.027344 -17.300781 9.753906 -16.289062 9.753906 -15.09375 L 9.753906 0 L 1.179688 0 L 1.179688 -27.773438 L 9.34375 -27.773438 Z M 9.34375 -25 "/></g></g></g><g fill="#ffffff" fill-opacity="1"><g transform="translate(265.654442, 271.953314)"><g><path d="M 29.363281 -13.964844 C 29.363281 -12.867188 29.261719 -11.808594 29.054688 -10.78125 L 9.136719 -10.78125 C 9.617188 -9.515625 10.421875 -8.554688 11.550781 -7.90625 C 12.679688 -7.253906 13.859375 -6.914062 15.09375 -6.878906 C 15.980469 -6.878906 16.835938 -7.03125 17.660156 -7.339844 C 18.480469 -7.648438 19.183594 -8.128906 19.761719 -8.777344 L 28.542969 -8.777344 C 27.855469 -6.757812 26.8125 -5.074219 25.410156 -3.722656 C 24.007812 -2.371094 22.398438 -1.359375 20.585938 -0.691406 C 18.769531 -0.0273438 16.90625 0.308594 14.988281 0.308594 C 13.210938 0.308594 11.464844 0.0078125 9.753906 -0.589844 C 8.042969 -1.1875 6.503906 -2.078125 5.132812 -3.257812 C 3.765625 -4.441406 2.679688 -5.929688 1.875 -7.726562 C 1.070312 -9.523438 0.667969 -11.601562 0.667969 -13.964844 C 0.667969 -16.324219 1.070312 -18.394531 1.875 -20.175781 C 2.679688 -21.953125 3.765625 -23.433594 5.132812 -24.613281 C 6.503906 -25.796875 8.042969 -26.683594 9.753906 -27.285156 C 11.464844 -27.882812 13.226562 -28.183594 15.039062 -28.183594 C 16.820312 -28.183594 18.566406 -27.882812 20.277344 -27.285156 C 21.988281 -26.683594 23.527344 -25.796875 24.898438 -24.613281 C 26.265625 -23.433594 27.351562 -21.953125 28.15625 -20.175781 C 28.960938 -18.394531 29.363281 -16.324219 29.363281 -13.964844 Z M 20.535156 -17.09375 C 20.15625 -18.496094 19.445312 -19.523438 18.402344 -20.175781 C 17.359375 -20.824219 16.1875 -21.148438 14.886719 -21.148438 C 13.6875 -21.148438 12.585938 -20.816406 11.574219 -20.148438 C 10.566406 -19.480469 9.855469 -18.464844 9.445312 -17.09375 Z M 20.535156 -17.09375 "/></g></g></g><g fill="#ffffff" fill-opacity="1"><g transform="translate(296.037076, 271.953314)"><g><path d="M 1.027344 -18.839844 C 1.027344 -21.097656 1.546875 -22.929688 2.59375 -24.332031 C 3.636719 -25.734375 5.03125 -26.769531 6.777344 -27.4375 C 8.519531 -28.105469 10.421875 -28.4375 12.472656 -28.4375 C 14.460938 -28.4375 16.296875 -28.097656 17.992188 -27.414062 C 19.6875 -26.726562 21.054688 -25.683594 22.097656 -24.28125 C 23.144531 -22.878906 23.664062 -21.097656 23.664062 -18.941406 L 15.914062 -18.941406 C 15.914062 -19.660156 15.699219 -20.183594 15.273438 -20.507812 C 14.84375 -20.832031 14.339844 -21.039062 13.757812 -21.125 C 13.175781 -21.210938 12.59375 -21.253906 12.011719 -21.253906 C 11.429688 -21.253906 10.8125 -21.125 10.164062 -20.867188 C 9.515625 -20.609375 9.1875 -20.105469 9.1875 -19.351562 C 9.1875 -18.875 9.386719 -18.53125 9.777344 -18.328125 C 10.171875 -18.121094 10.632812 -17.992188 11.164062 -17.941406 C 11.695312 -17.890625 12.148438 -17.847656 12.527344 -17.8125 C 14.476562 -17.777344 16.339844 -17.453125 18.121094 -16.835938 C 19.902344 -16.222656 21.363281 -15.246094 22.511719 -13.910156 C 23.65625 -12.578125 24.230469 -10.8125 24.230469 -8.625 C 24.230469 -6.296875 23.671875 -4.449219 22.5625 -3.078125 C 21.449219 -1.710938 19.984375 -0.734375 18.171875 -0.152344 C 16.359375 0.429688 14.425781 0.71875 12.371094 0.71875 C 10.179688 0.71875 8.203125 0.375 6.441406 -0.308594 C 4.679688 -0.992188 3.277344 -2.078125 2.234375 -3.566406 C 1.1875 -5.054688 0.648438 -6.980469 0.617188 -9.34375 L 8.726562 -9.34375 C 8.761719 -8.382812 9.207031 -7.707031 10.0625 -7.316406 C 10.917969 -6.921875 11.824219 -6.726562 12.78125 -6.726562 C 13.773438 -6.726562 14.578125 -6.894531 15.195312 -7.238281 C 15.8125 -7.582031 16.117188 -7.972656 16.117188 -8.417969 C 16.117188 -9.101562 15.84375 -9.558594 15.296875 -9.777344 C 14.75 -10 14.125 -10.128906 13.425781 -10.164062 C 12.722656 -10.199219 12.148438 -10.234375 11.703125 -10.265625 C 9.957031 -10.4375 8.273438 -10.804688 6.648438 -11.371094 C 5.023438 -11.933594 3.679688 -12.816406 2.617188 -14.015625 C 1.558594 -15.210938 1.027344 -16.820312 1.027344 -18.839844 Z M 1.027344 -18.839844 "/></g></g></g><g fill="#ffffff" fill-opacity="1"><g transform="translate(65.011619, 293.883732)"><g><path d="M 5.496094 -6.171875 L 2.5625 -6.171875 L 2.5625 -4.472656 L 5.210938 -4.472656 L 5.210938 -2.957031 L 2.5625 -2.957031 L 2.5625 0 L 0.882812 0 L 0.882812 -7.726562 L 5.496094 -7.726562 Z M 5.496094 -6.171875 "/></g></g></g><g fill="#ffffff" fill-opacity="1"><g transform="translate(72.386065, 293.883732)"><g><path d="M 2.5625 -1.554688 L 5.640625 -1.554688 L 5.640625 0 L 0.882812 0 L 0.882812 -7.726562 L 5.519531 -7.726562 L 5.519531 -6.183594 L 2.5625 -6.183594 L 2.5625 -4.660156 L 5.234375 -4.660156 L 5.234375 -3.144531 L 2.5625 -3.144531 Z M 2.5625 -1.554688 "/></g></g></g><g fill="#ffffff" fill-opacity="1"><g transform="translate(80.025454, 293.883732)"><g><path d="M 2.5625 -1.554688 L 5.640625 -1.554688 L 5.640625 0 L 0.882812 0 L 0.882812 -7.726562 L 5.519531 -7.726562 L 5.519531 -6.183594 L 2.5625 -6.183594 L 2.5625 -4.660156 L 5.234375 -4.660156 L 5.234375 -3.144531 L 2.5625 -3.144531 Z M 2.5625 -1.554688 "/></g></g></g><g fill="#ffffff" fill-opacity="1"><g transform="translate(87.664842, 293.883732)"><g><path d="M 2.5625 -1.554688 L 5.519531 -1.554688 L 5.519531 0 L 0.882812 0 L 0.882812 -7.726562 L 2.5625 -7.726562 Z M 2.5625 -1.554688 "/></g></g></g><g fill="#ffffff" fill-opacity="1"><g transform="translate(94.89578, 293.883732)"><g/></g></g><g fill="#ffffff" fill-opacity="1"><g transform="translate(99.002664, 293.883732)"><g><path d="M 6.214844 -7.726562 L 6.214844 -6.171875 L 4.0625 -6.171875 L 4.0625 0 L 2.382812 0 L 2.382812 -6.171875 L 0.242188 -6.171875 L 0.242188 -7.726562 Z M 6.214844 -7.726562 "/></g></g></g><g fill="#ffffff" fill-opacity="1"><g transform="translate(106.918026, 293.883732)"><g><path d="M 5.464844 -7.726562 L 7.132812 -7.726562 L 7.132812 0 L 5.464844 0 L 5.464844 -3.191406 L 2.5625 -3.191406 L 2.5625 0 L 0.882812 0 L 0.882812 -7.726562 L 2.5625 -7.726562 L 2.5625 -4.746094 L 5.464844 -4.746094 Z M 5.464844 -7.726562 "/></g></g></g><g fill="#ffffff" fill-opacity="1"><g transform="translate(116.411976, 293.883732)"><g><path d="M 2.5625 -1.554688 L 5.640625 -1.554688 L 5.640625 0 L 0.882812 0 L 0.882812 -7.726562 L 5.519531 -7.726562 L 5.519531 -6.183594 L 2.5625 -6.183594 L 2.5625 -4.660156 L 5.234375 -4.660156 L 5.234375 -3.144531 L 2.5625 -3.144531 Z M 2.5625 -1.554688 "/></g></g></g><g fill="#ffffff" fill-opacity="1"><g transform="translate(124.051364, 293.883732)"><g/></g></g><g fill="#ffffff" fill-opacity="1"><g transform="translate(128.158248, 293.883732)"><g><path d="M 10.355469 0 L 8.65625 0 L 7.894531 -5.046875 L 5.585938 -0.0117188 L 5.179688 -0.0117188 L 2.871094 -5.046875 L 2.109375 0 L 0.398438 0 L 1.613281 -7.726562 L 3.289062 -7.726562 L 5.375 -2.992188 L 7.472656 -7.726562 L 9.152344 -7.726562 Z M 10.355469 0 "/></g></g></g><g fill="#ffffff" fill-opacity="1"><g transform="translate(140.389887, 293.883732)"><g><path d="M 3.996094 0.164062 C 3.386719 0.164062 2.839844 0.0351562 2.363281 -0.226562 C 1.882812 -0.488281 1.503906 -0.847656 1.226562 -1.308594 C 0.945312 -1.769531 0.804688 -2.300781 0.804688 -2.902344 L 0.804688 -7.726562 L 2.484375 -7.726562 L 2.484375 -2.980469 C 2.484375 -2.503906 2.625 -2.121094 2.910156 -1.839844 C 3.191406 -1.554688 3.554688 -1.414062 3.996094 -1.414062 C 4.445312 -1.414062 4.8125 -1.554688 5.09375 -1.839844 C 5.378906 -2.121094 5.519531 -2.503906 5.519531 -2.980469 L 5.519531 -7.726562 L 7.1875 -7.726562 L 7.1875 -2.902344 C 7.1875 -2.300781 7.050781 -1.769531 6.773438 -1.308594 C 6.496094 -0.847656 6.117188 -0.488281 5.636719 -0.226562 C 5.152344 0.0351562 4.605469 0.164062 3.996094 0.164062 Z M 3.996094 0.164062 "/></g></g></g><g fill="#ffffff" fill-opacity="1"><g transform="translate(149.850717, 293.883732)"><g><path d="M 3.445312 0.15625 C 2.855469 0.15625 2.335938 0.046875 1.886719 -0.164062 C 1.4375 -0.378906 1.085938 -0.683594 0.832031 -1.082031 C 0.578125 -1.480469 0.453125 -1.953125 0.453125 -2.507812 L 2.140625 -2.507812 C 2.140625 -2.128906 2.273438 -1.851562 2.535156 -1.671875 C 2.796875 -1.492188 3.09375 -1.402344 3.433594 -1.402344 C 3.648438 -1.402344 3.847656 -1.4375 4.035156 -1.507812 C 4.222656 -1.578125 4.378906 -1.679688 4.5 -1.816406 C 4.621094 -1.953125 4.679688 -2.117188 4.679688 -2.308594 C 4.679688 -2.507812 4.609375 -2.664062 4.472656 -2.777344 C 4.332031 -2.890625 4.144531 -2.984375 3.90625 -3.058594 C 3.671875 -3.132812 3.414062 -3.203125 3.136719 -3.269531 C 2.847656 -3.335938 2.554688 -3.414062 2.253906 -3.511719 C 1.949219 -3.605469 1.671875 -3.734375 1.414062 -3.890625 C 1.15625 -4.050781 0.949219 -4.261719 0.792969 -4.53125 C 0.640625 -4.800781 0.5625 -5.140625 0.5625 -5.554688 C 0.5625 -6.296875 0.816406 -6.867188 1.320312 -7.269531 C 1.824219 -7.671875 2.507812 -7.871094 3.367188 -7.871094 C 4.25 -7.871094 4.933594 -7.648438 5.421875 -7.203125 C 5.90625 -6.757812 6.148438 -6.152344 6.148438 -5.386719 L 4.492188 -5.386719 C 4.492188 -5.71875 4.375 -5.964844 4.140625 -6.121094 C 3.90625 -6.28125 3.632812 -6.359375 3.324219 -6.359375 C 3.050781 -6.359375 2.800781 -6.300781 2.574219 -6.183594 C 2.34375 -6.066406 2.230469 -5.878906 2.230469 -5.628906 C 2.230469 -5.445312 2.296875 -5.300781 2.433594 -5.195312 C 2.570312 -5.085938 2.75 -5 2.976562 -4.929688 C 3.199219 -4.859375 3.449219 -4.792969 3.71875 -4.726562 C 4.015625 -4.652344 4.316406 -4.566406 4.625 -4.464844 C 4.933594 -4.367188 5.222656 -4.230469 5.488281 -4.0625 C 5.75 -3.894531 5.96875 -3.667969 6.132812 -3.390625 C 6.296875 -3.109375 6.382812 -2.757812 6.382812 -2.328125 C 6.382812 -1.769531 6.246094 -1.304688 5.976562 -0.9375 C 5.710938 -0.570312 5.355469 -0.296875 4.914062 -0.117188 C 4.472656 0.0625 3.980469 0.15625 3.445312 0.15625 Z M 3.445312 0.15625 "/></g></g></g><g fill="#ffffff" fill-opacity="1"><g transform="translate(158.152444, 293.883732)"><g><path d="M 0.882812 -7.726562 L 2.5625 -7.726562 L 2.5625 0 L 0.882812 0 Z M 0.882812 -7.726562 "/></g></g></g><g fill="#ffffff" fill-opacity="1"><g transform="translate(163.065175, 293.883732)"><g><path d="M 4.425781 0.164062 C 3.859375 0.164062 3.335938 0.0625 2.847656 -0.136719 C 2.363281 -0.339844 1.9375 -0.625 1.578125 -0.988281 C 1.21875 -1.351562 0.9375 -1.777344 0.738281 -2.269531 C 0.539062 -2.757812 0.441406 -3.285156 0.441406 -3.851562 C 0.441406 -4.425781 0.539062 -4.960938 0.738281 -5.453125 C 0.9375 -5.945312 1.21875 -6.375 1.578125 -6.738281 C 1.9375 -7.105469 2.363281 -7.386719 2.847656 -7.589844 C 3.335938 -7.792969 3.859375 -7.894531 4.425781 -7.894531 C 5.050781 -7.894531 5.625 -7.765625 6.148438 -7.507812 C 6.671875 -7.25 7.109375 -6.890625 7.464844 -6.425781 C 7.816406 -5.960938 8.050781 -5.425781 8.167969 -4.8125 L 6.492188 -4.8125 C 6.335938 -5.269531 6.074219 -5.632812 5.707031 -5.902344 C 5.339844 -6.167969 4.914062 -6.304688 4.425781 -6.304688 C 3.992188 -6.304688 3.601562 -6.195312 3.257812 -5.976562 C 2.910156 -5.761719 2.636719 -5.46875 2.433594 -5.101562 C 2.230469 -4.734375 2.128906 -4.316406 2.128906 -3.851562 C 2.128906 -3.390625 2.230469 -2.976562 2.433594 -2.609375 C 2.636719 -2.246094 2.910156 -1.957031 3.257812 -1.746094 C 3.601562 -1.53125 3.992188 -1.425781 4.425781 -1.425781 C 4.933594 -1.425781 5.371094 -1.566406 5.742188 -1.855469 C 6.109375 -2.140625 6.363281 -2.53125 6.503906 -3.023438 L 8.191406 -3.023438 C 8.074219 -2.382812 7.839844 -1.824219 7.492188 -1.347656 C 7.140625 -0.867188 6.703125 -0.496094 6.175781 -0.230469 C 5.652344 0.03125 5.066406 0.164062 4.425781 0.164062 Z M 4.425781 0.164062 "/></g></g></g><g fill="#ffffff" fill-opacity="1"><g transform="translate(173.044845, 293.883732)"><g><path d="M 0.738281 1.746094 L 0.738281 0.960938 C 1.042969 0.917969 1.257812 0.800781 1.390625 0.617188 C 1.523438 0.433594 1.589844 0.226562 1.589844 0 L 0.664062 0 L 0.664062 -1.722656 L 2.394531 -1.722656 L 2.394531 -0.132812 C 2.394531 0.425781 2.242188 0.867188 1.9375 1.1875 C 1.632812 1.507812 1.234375 1.691406 0.738281 1.746094 Z M 0.738281 1.746094 "/></g></g></g><g fill="#ffffff" fill-opacity="1"><g transform="translate(177.571212, 293.883732)"><g/></g></g><g fill="#ffffff" fill-opacity="1"><g transform="translate(181.678096, 293.883732)"><g><path d="M 10.355469 0 L 8.65625 0 L 7.894531 -5.046875 L 5.585938 -0.0117188 L 5.179688 -0.0117188 L 2.871094 -5.046875 L 2.109375 0 L 0.398438 0 L 1.613281 -7.726562 L 3.289062 -7.726562 L 5.375 -2.992188 L 7.472656 -7.726562 L 9.152344 -7.726562 Z M 10.355469 0 "/></g></g></g><g fill="#ffffff" fill-opacity="1"><g transform="translate(193.909735, 293.883732)"><g><path d="M 6.015625 0 L 5.476562 -1.46875 L 2.394531 -1.46875 L 1.867188 0 L 0.0976562 0 L 3.125 -7.726562 L 4.703125 -7.726562 L 7.828125 0 Z M 3.929688 -5.6875 L 2.925781 -2.925781 L 4.945312 -2.925781 Z M 3.929688 -5.6875 "/></g></g></g><g fill="#ffffff" fill-opacity="1"><g transform="translate(203.304338, 293.883732)"><g><path d="M 6.214844 -7.726562 L 6.214844 -6.171875 L 4.0625 -6.171875 L 4.0625 0 L 2.382812 0 L 2.382812 -6.171875 L 0.242188 -6.171875 L 0.242188 -7.726562 Z M 6.214844 -7.726562 "/></g></g></g><g fill="#ffffff" fill-opacity="1"><g transform="translate(211.219701, 293.883732)"><g><path d="M 4.425781 0.164062 C 3.859375 0.164062 3.335938 0.0625 2.847656 -0.136719 C 2.363281 -0.339844 1.9375 -0.625 1.578125 -0.988281 C 1.21875 -1.351562 0.9375 -1.777344 0.738281 -2.269531 C 0.539062 -2.757812 0.441406 -3.285156 0.441406 -3.851562 C 0.441406 -4.425781 0.539062 -4.960938 0.738281 -5.453125 C 0.9375 -5.945312 1.21875 -6.375 1.578125 -6.738281 C 1.9375 -7.105469 2.363281 -7.386719 2.847656 -7.589844 C 3.335938 -7.792969 3.859375 -7.894531 4.425781 -7.894531 C 5.050781 -7.894531 5.625 -7.765625 6.148438 -7.507812 C 6.671875 -7.25 7.109375 -6.890625 7.464844 -6.425781 C 7.816406 -5.960938 8.050781 -5.425781 8.167969 -4.8125 L 6.492188 -4.8125 C 6.335938 -5.269531 6.074219 -5.632812 5.707031 -5.902344 C 5.339844 -6.167969 4.914062 -6.304688 4.425781 -6.304688 C 3.992188 -6.304688 3.601562 -6.195312 3.257812 -5.976562 C 2.910156 -5.761719 2.636719 -5.46875 2.433594 -5.101562 C 2.230469 -4.734375 2.128906 -4.316406 2.128906 -3.851562 C 2.128906 -3.390625 2.230469 -2.976562 2.433594 -2.609375 C 2.636719 -2.246094 2.910156 -1.957031 3.257812 -1.746094 C 3.601562 -1.53125 3.992188 -1.425781 4.425781 -1.425781 C 4.933594 -1.425781 5.371094 -1.566406 5.742188 -1.855469 C 6.109375 -2.140625 6.363281 -2.53125 6.503906 -3.023438 L 8.191406 -3.023438 C 8.074219 -2.382812 7.839844 -1.824219 7.492188 -1.347656 C 7.140625 -0.867188 6.703125 -0.496094 6.175781 -0.230469 C 5.652344 0.03125 5.066406 0.164062 4.425781 0.164062 Z M 4.425781 0.164062 "/></g></g></g><g fill="#ffffff" fill-opacity="1"><g transform="translate(221.199372, 293.883732)"><g><path d="M 5.464844 -7.726562 L 7.132812 -7.726562 L 7.132812 0 L 5.464844 0 L 5.464844 -3.191406 L 2.5625 -3.191406 L 2.5625 0 L 0.882812 0 L 0.882812 -7.726562 L 2.5625 -7.726562 L 2.5625 -4.746094 L 5.464844 -4.746094 Z M 5.464844 -7.726562 "/></g></g></g><g fill="#ffffff" fill-opacity="1"><g transform="translate(230.693321, 293.883732)"><g/></g></g><g fill="#ffffff" fill-opacity="1"><g transform="translate(234.800205, 293.883732)"><g><path d="M 6.214844 -7.726562 L 6.214844 -6.171875 L 4.0625 -6.171875 L 4.0625 0 L 2.382812 0 L 2.382812 -6.171875 L 0.242188 -6.171875 L 0.242188 -7.726562 Z M 6.214844 -7.726562 "/></g></g></g><g fill="#ffffff" fill-opacity="1"><g transform="translate(242.715567, 293.883732)"><g><path d="M 5.464844 -7.726562 L 7.132812 -7.726562 L 7.132812 0 L 5.464844 0 L 5.464844 -3.191406 L 2.5625 -3.191406 L 2.5625 0 L 0.882812 0 L 0.882812 -7.726562 L 2.5625 -7.726562 L 2.5625 -4.746094 L 5.464844 -4.746094 Z M 5.464844 -7.726562 "/></g></g></g><g fill="#ffffff" fill-opacity="1"><g transform="translate(252.209517, 293.883732)"><g><path d="M 2.5625 -1.554688 L 5.640625 -1.554688 L 5.640625 0 L 0.882812 0 L 0.882812 -7.726562 L 5.519531 -7.726562 L 5.519531 -6.183594 L 2.5625 -6.183594 L 2.5625 -4.660156 L 5.234375 -4.660156 L 5.234375 -3.144531 L 2.5625 -3.144531 Z M 2.5625 -1.554688 "/></g></g></g><g fill="#ffffff" fill-opacity="1"><g transform="translate(259.848917, 293.883732)"><g/></g></g><g fill="#ffffff" fill-opacity="1"><g transform="translate(263.955789, 293.883732)"><g><path d="M 10.355469 0 L 8.65625 0 L 7.894531 -5.046875 L 5.585938 -0.0117188 L 5.179688 -0.0117188 L 2.871094 -5.046875 L 2.109375 0 L 0.398438 0 L 1.613281 -7.726562 L 3.289062 -7.726562 L 5.375 -2.992188 L 7.472656 -7.726562 L 9.152344 -7.726562 Z M 10.355469 0 "/></g></g></g><g fill="#ffffff" fill-opacity="1"><g transform="translate(276.187417, 293.883732)"><g><path d="M 4.546875 0.164062 C 3.960938 0.164062 3.414062 0.0625 2.914062 -0.136719 C 2.414062 -0.339844 1.976562 -0.625 1.605469 -0.988281 C 1.234375 -1.351562 0.945312 -1.777344 0.738281 -2.269531 C 0.535156 -2.757812 0.429688 -3.289062 0.429688 -3.863281 C 0.429688 -4.4375 0.535156 -4.96875 0.738281 -5.460938 C 0.945312 -5.949219 1.234375 -6.375 1.605469 -6.738281 C 1.976562 -7.105469 2.414062 -7.386719 2.914062 -7.589844 C 3.414062 -7.792969 3.960938 -7.894531 4.546875 -7.894531 C 5.136719 -7.894531 5.683594 -7.792969 6.183594 -7.589844 C 6.683594 -7.386719 7.117188 -7.105469 7.484375 -6.738281 C 7.851562 -6.375 8.140625 -5.949219 8.347656 -5.460938 C 8.550781 -4.96875 8.65625 -4.4375 8.65625 -3.863281 C 8.65625 -3.289062 8.550781 -2.757812 8.347656 -2.269531 C 8.140625 -1.777344 7.851562 -1.351562 7.484375 -0.988281 C 7.117188 -0.625 6.683594 -0.339844 6.183594 -0.136719 C 5.683594 0.0625 5.136719 0.164062 4.546875 0.164062 Z M 4.546875 -1.414062 C 5.011719 -1.414062 5.425781 -1.519531 5.789062 -1.734375 C 6.15625 -1.945312 6.441406 -2.238281 6.652344 -2.605469 C 6.863281 -2.972656 6.964844 -3.394531 6.964844 -3.863281 C 6.964844 -4.328125 6.863281 -4.746094 6.652344 -5.117188 C 6.441406 -5.488281 6.15625 -5.78125 5.789062 -5.996094 C 5.425781 -6.207031 5.011719 -6.316406 4.546875 -6.316406 C 4.09375 -6.316406 3.679688 -6.207031 3.3125 -5.996094 C 2.945312 -5.78125 2.652344 -5.488281 2.441406 -5.117188 C 2.226562 -4.746094 2.121094 -4.328125 2.121094 -3.863281 C 2.121094 -3.398438 2.226562 -2.984375 2.441406 -2.609375 C 2.652344 -2.238281 2.945312 -1.945312 3.3125 -1.734375 C 3.679688 -1.519531 4.09375 -1.414062 4.546875 -1.414062 Z M 4.546875 -1.414062 "/></g></g></g><g fill="#ffffff" fill-opacity="1"><g transform="translate(286.741135, 293.883732)"><g><path d="M 4.546875 0.164062 C 3.960938 0.164062 3.414062 0.0625 2.914062 -0.136719 C 2.414062 -0.339844 1.976562 -0.625 1.605469 -0.988281 C 1.234375 -1.351562 0.945312 -1.777344 0.738281 -2.269531 C 0.535156 -2.757812 0.429688 -3.289062 0.429688 -3.863281 C 0.429688 -4.4375 0.535156 -4.96875 0.738281 -5.460938 C 0.945312 -5.949219 1.234375 -6.375 1.605469 -6.738281 C 1.976562 -7.105469 2.414062 -7.386719 2.914062 -7.589844 C 3.414062 -7.792969 3.960938 -7.894531 4.546875 -7.894531 C 5.136719 -7.894531 5.683594 -7.792969 6.183594 -7.589844 C 6.683594 -7.386719 7.117188 -7.105469 7.484375 -6.738281 C 7.851562 -6.375 8.140625 -5.949219 8.347656 -5.460938 C 8.550781 -4.96875 8.65625 -4.4375 8.65625 -3.863281 C 8.65625 -3.289062 8.550781 -2.757812 8.347656 -2.269531 C 8.140625 -1.777344 7.851562 -1.351562 7.484375 -0.988281 C 7.117188 -0.625 6.683594 -0.339844 6.183594 -0.136719 C 5.683594 0.0625 5.136719 0.164062 4.546875 0.164062 Z M 4.546875 -1.414062 C 5.011719 -1.414062 5.425781 -1.519531 5.789062 -1.734375 C 6.15625 -1.945312 6.441406 -2.238281 6.652344 -2.605469 C 6.863281 -2.972656 6.964844 -3.394531 6.964844 -3.863281 C 6.964844 -4.328125 6.863281 -4.746094 6.652344 -5.117188 C 6.441406 -5.488281 6.15625 -5.78125 5.789062 -5.996094 C 5.425781 -6.207031 5.011719 -6.316406 4.546875 -6.316406 C 4.09375 -6.316406 3.679688 -6.207031 3.3125 -5.996094 C 2.945312 -5.78125 2.652344 -5.488281 2.441406 -5.117188 C 2.226562 -4.746094 2.121094 -4.328125 2.121094 -3.863281 C 2.121094 -3.398438 2.226562 -2.984375 2.441406 -2.609375 C 2.652344 -2.238281 2.945312 -1.945312 3.3125 -1.734375 C 3.679688 -1.519531 4.09375 -1.414062 4.546875 -1.414062 Z M 4.546875 -1.414062 "/></g></g></g><g fill="#ffffff" fill-opacity="1"><g transform="translate(297.294852, 293.883732)"><g><path d="M 3.808594 -7.726562 C 4.375 -7.726562 4.898438 -7.632812 5.375 -7.441406 C 5.855469 -7.25 6.269531 -6.980469 6.617188 -6.636719 C 6.96875 -6.289062 7.242188 -5.882812 7.433594 -5.414062 C 7.628906 -4.949219 7.726562 -4.433594 7.726562 -3.875 C 7.726562 -3.316406 7.628906 -2.800781 7.433594 -2.328125 C 7.242188 -1.859375 6.96875 -1.449219 6.617188 -1.097656 C 6.269531 -0.75 5.855469 -0.476562 5.375 -0.285156 C 4.898438 -0.09375 4.375 0 3.808594 0 L 0.882812 0 L 0.882812 -7.726562 Z M 3.765625 -1.554688 C 4.207031 -1.554688 4.597656 -1.65625 4.933594 -1.855469 C 5.273438 -2.054688 5.539062 -2.328125 5.730469 -2.675781 C 5.921875 -3.027344 6.015625 -3.425781 6.015625 -3.875 C 6.015625 -4.324219 5.921875 -4.722656 5.730469 -5.066406 C 5.539062 -5.414062 5.273438 -5.683594 4.933594 -5.878906 C 4.597656 -6.074219 4.207031 -6.171875 3.765625 -6.171875 L 2.5625 -6.171875 L 2.5625 -1.554688 Z M 3.765625 -1.554688 "/></g></g></g><g fill="#ffffff" fill-opacity="1"><g transform="translate(306.943343, 293.883732)"><g><path d="M 0.664062 -1.722656 L 2.375 -1.722656 L 2.375 0 L 0.664062 0 Z M 0.664062 -1.722656 "/></g></g></g></svg>