<svg xmlns="http://www.w3.org/2000/svg" xmlns:xlink="http://www.w3.org/1999/xlink" width="500" zoomAndPan="magnify" viewBox="0 0 375 374.999991" height="500" preserveAspectRatio="xMidYMid meet" version="1.0"><defs><g/><clipPath id="2bc4e7cefd"><path d="M 187.5 0 C 83.945312 0 0 83.945312 0 187.5 C 0 291.054688 83.945312 375 187.5 375 C 291.054688 375 375 291.054688 375 187.5 C 375 83.945312 291.054688 0 187.5 0 Z M 187.5 0 " clip-rule="nonzero"/></clipPath><clipPath id="831d9cce76"><path d="M 45.320312 45.320312 L 329.570312 45.320312 L 329.570312 329.570312 L 45.320312 329.570312 Z M 45.320312 45.320312 " clip-rule="nonzero"/></clipPath></defs><g clip-path="url(#2bc4e7cefd)"><rect x="-37.5" width="450" fill="#ffffff" y="-37.499999" height="449.999989" fill-opacity="1"/></g><path fill="#35a6d5" d="M 298.007812 134.410156 C 298.101562 134.519531 298.210938 134.691406 298.335938 134.941406 C 298.472656 135.25 298.578125 135.503906 298.667969 135.722656 C 298.453125 135.285156 298.230469 134.84375 298.007812 134.410156 Z M 298.667969 135.722656 C 299.597656 137.597656 300.484375 139.496094 301.324219 141.421875 L 300.578125 139.925781 C 299.074219 137.128906 299.238281 137.117188 298.667969 135.722656 Z M 298.007812 134.410156 C 297.726562 134.070312 297.585938 134.257812 297.585938 134.441406 L 298.585938 136.4375 C 298.085938 137.683594 295.59375 130.707031 295.34375 132.199219 C 294.347656 133.945312 296.839844 139.675781 296.839844 139.925781 C 296.339844 140.175781 291.359375 136.6875 293.351562 141.171875 C 293.847656 142.417969 295.59375 146.40625 293.847656 145.160156 C 292.105469 144.160156 293.101562 142.417969 292.851562 141.671875 C 291.109375 139.925781 290.609375 140.671875 289.613281 137.433594 C 288.617188 134.691406 288.617188 133.945312 286.621094 132.199219 C 284.628906 130.707031 284.378906 129.957031 282.636719 128.460938 C 280.394531 126.21875 279.894531 124.972656 278.898438 125.722656 C 279.644531 129.957031 287.121094 135.191406 288.617188 137.433594 C 287.621094 136.933594 287.621094 136.933594 286.375 136.4375 C 286.621094 138.179688 288.117188 139.675781 286.621094 140.175781 C 285.875 138.429688 286.871094 138.679688 285.128906 136.1875 C 283.632812 134.195312 283.382812 134.441406 281.886719 133.445312 C 279.394531 131.703125 277.152344 127.214844 275.65625 125.96875 C 274.410156 125.96875 274.164062 126.96875 272.667969 127.214844 C 270.671875 127.464844 270.175781 125.96875 267.933594 126.46875 C 266.6875 128.710938 269.429688 127.714844 266.1875 129.707031 C 261.703125 132.449219 264.691406 136.4375 260.457031 137.683594 C 258.710938 138.179688 258.464844 137.433594 256.96875 137.683594 C 254.972656 137.933594 256.21875 138.429688 254.972656 138.929688 C 253.976562 138.179688 253.480469 137.183594 252.480469 136.6875 C 250.488281 135.191406 250.738281 136.4375 248.742188 135.191406 C 247.746094 133.445312 247.996094 123.230469 248.496094 122.480469 C 251.984375 121.484375 256.21875 125.222656 259.707031 124.226562 C 260.707031 122.980469 260.457031 120.738281 259.707031 118.742188 C 258.464844 115.753906 256.71875 116.75 254.972656 114.507812 C 255.222656 114.257812 258.710938 114.007812 259.460938 114.007812 C 263.199219 113.511719 260.953125 114.257812 263.445312 112.511719 C 264.691406 111.765625 265.441406 111.765625 266.6875 110.769531 C 268.183594 109.273438 269.429688 111.019531 270.671875 110.269531 C 270.425781 108.777344 267.433594 105.785156 269.925781 106.035156 C 270.671875 107.28125 270.671875 107.28125 271.171875 108.527344 L 272.917969 108.527344 C 274.09375 110.171875 272.824219 109.820312 272.050781 109.566406 C 271.933594 109.355469 271.886719 109.238281 271.871094 109.175781 C 271.949219 109.152344 271.839844 109.042969 271.871094 109.175781 C 271.820312 109.1875 271.699219 109.160156 271.421875 109.023438 L 271.917969 109.523438 C 273.664062 112.511719 273.664062 110.519531 275.410156 111.765625 C 278.398438 113.757812 276.40625 112.761719 278.648438 113.011719 C 280.144531 113.261719 280.640625 114.757812 281.636719 114.507812 C 282.636719 114.257812 281.140625 113.011719 280.890625 111.765625 C 281.886719 112.015625 282.386719 113.511719 282.882812 113.011719 C 282.136719 111.765625 282.136719 112.015625 281.140625 110.519531 C 281.636719 110.519531 284.628906 113.757812 283.882812 112.511719 C 281.390625 109.523438 281.390625 111.019531 277.652344 106.78125 C 276.15625 104.539062 277.902344 106.035156 276.15625 103.792969 C 274.164062 102.046875 275.160156 103.292969 274.910156 103.542969 C 274.410156 103.792969 273.164062 102.792969 274.164062 104.539062 C 275.65625 106.53125 275.410156 105.785156 276.902344 107.28125 C 277.152344 108.527344 275.90625 107.03125 276.40625 108.777344 C 276.65625 110.019531 276.40625 110.519531 275.160156 110.269531 C 272.917969 108.527344 272.667969 106.78125 269.925781 104.289062 C 268.429688 103.792969 268.679688 105.285156 265.9375 103.292969 C 264.691406 102.296875 263.445312 100.300781 262.949219 99.304688 C 263.695312 98.058594 267.683594 100.054688 267.933594 98.308594 C 267.933594 96.8125 269.675781 98.058594 270.921875 98.808594 C 271.421875 99.054688 271.671875 99.304688 271.917969 99.554688 C 282.523438 109.519531 291.320312 121.292969 298.007812 134.410156 Z M 272.050781 109.566406 C 272.085938 109.628906 272.121094 109.695312 272.167969 109.773438 L 271.917969 109.523438 C 271.960938 109.539062 272.003906 109.550781 272.050781 109.566406 Z M 117.4375 129.957031 C 117.027344 130.25 116.601562 130.582031 116.167969 130.953125 C 114.175781 132.449219 111.933594 134.691406 110.1875 135.9375 C 108.195312 137.433594 109.9375 140.175781 106.949219 143.164062 C 105.203125 144.910156 102.214844 146.652344 99.972656 148.648438 C 91.5 156.871094 98.726562 163.351562 93.988281 166.089844 C 90.75 164.097656 95.234375 156.125 91.25 156.125 C 88.757812 156.125 88.257812 155.375 87.011719 155.375 C 85.019531 155.375 84.769531 157.371094 83.523438 158.863281 C 79.289062 159.363281 82.777344 154.878906 76.796875 160.859375 C 73.058594 164.847656 74.550781 163.601562 72.558594 170.328125 C 70.316406 179.796875 73.804688 188.519531 78.289062 179.546875 C 79.785156 176.558594 83.773438 173.320312 82.527344 179.050781 C 81.78125 182.289062 77.792969 187.773438 81.28125 188.269531 C 85.515625 188.769531 87.011719 186.777344 86.015625 195 C 85.515625 200.980469 85.765625 203.472656 90.5 203.96875 C 92.992188 203.96875 96.480469 205.964844 98.476562 203.472656 C 99.222656 202.476562 104.457031 194.75 105.453125 198.238281 C 106.449219 201.726562 104.207031 207.210938 107.199219 200.980469 C 109.691406 196.246094 112.429688 200.480469 116.917969 201.976562 C 121.652344 203.472656 124.394531 202.226562 128.628906 206.710938 C 132.867188 210.949219 132.367188 213.191406 139.09375 214.1875 C 144.828125 214.933594 147.570312 216.179688 150.058594 221.914062 C 152.054688 226.898438 146.820312 231.382812 146.820312 231.632812 C 150.308594 230.636719 154.796875 226.898438 153.550781 232.378906 C 152.800781 236.117188 158.285156 228.390625 162.769531 233.125 C 168.75 239.355469 167.253906 234.371094 174.730469 236.617188 C 178.71875 237.863281 182.953125 242.097656 188.1875 243.84375 C 189.683594 254.058594 179.464844 256.054688 179.464844 262.78125 C 179.21875 268.265625 179.714844 279.230469 171.988281 280.226562 C 158.285156 281.222656 164.265625 284.960938 161.273438 290.441406 C 155.292969 300.410156 153.550781 295.675781 149.0625 295.675781 C 149.0625 296.425781 157.535156 300.910156 150.058594 300.660156 C 147.070312 300.410156 146.570312 299.914062 146.820312 301.65625 C 147.070312 302.652344 145.324219 301.65625 143.582031 301.65625 C 143.582031 302.15625 145.324219 303.152344 146.074219 303.652344 C 147.070312 304.648438 145.824219 304.648438 145.574219 305.144531 C 144.828125 306.144531 149.5625 306.640625 148.8125 308.136719 C 148.566406 308.636719 151.804688 310.128906 146.570312 308.386719 C 142.585938 306.890625 141.835938 306.390625 139.34375 304.898438 C 138.347656 304.398438 136.605469 303.652344 136.355469 303.152344 C 136.105469 302.652344 136.605469 302.652344 135.605469 301.65625 C 134.359375 300.160156 130.871094 298.417969 129.128906 296.425781 C 126.882812 293.683594 126.882812 291.9375 125.140625 288.949219 C 117.164062 272.5 121.652344 268.015625 109.191406 260.289062 C 103.210938 256.300781 105.203125 256.300781 101.464844 251.320312 C 98.226562 247.082031 97.230469 243.34375 95.234375 240.601562 C 94.238281 239.109375 92.246094 237.363281 91.996094 235.617188 C 91.5 233.625 92.746094 232.628906 92.496094 230.882812 C 91.746094 226.898438 89.503906 228.640625 93.492188 221.414062 C 95.984375 216.929688 96.234375 215.183594 94.488281 209.203125 C 93.742188 207.210938 94.738281 205.714844 92.992188 204.96875 C 90.5 203.722656 90.75 206.460938 89.753906 207.460938 C 82.027344 205.214844 81.53125 193.753906 79.039062 194.003906 C 75.796875 194.003906 75.550781 191.511719 73.804688 188.769531 C 72.058594 185.777344 71.8125 190.265625 69.070312 187.523438 C 63.339844 179.796875 66.078125 181.042969 65.332031 175.0625 C 65.082031 171.824219 64.832031 172.074219 64.832031 168.335938 C 64.832031 166.839844 64.585938 166.339844 64.832031 164.847656 C 65.082031 163.101562 65.332031 162.601562 65.332031 160.859375 C 64.085938 165.34375 63.585938 174.066406 63.339844 173.566406 C 62.839844 172.320312 64.585938 162.105469 65.082031 159.113281 C 65.332031 158.367188 65.332031 157.617188 65.582031 157.121094 C 71.5625 135.441406 83.523438 116.003906 98.726562 101.546875 C 102.960938 97.8125 103.957031 97.3125 107.445312 95.816406 C 109.441406 95.070312 116.667969 91.332031 120.902344 90.085938 C 128.628906 88.09375 131.867188 83.109375 133.113281 84.105469 C 135.605469 86.097656 137.851562 84.601562 143.582031 83.605469 C 141.585938 84.105469 142.832031 85.601562 136.355469 86.847656 C 133.613281 87.59375 134.609375 87.34375 132.367188 88.339844 C 129.625 89.585938 131.371094 88.09375 129.128906 89.089844 C 129.375 89.585938 129.375 89.585938 129.875 90.085938 C 127.382812 91.582031 125.140625 92.078125 123.148438 92.578125 C 121.652344 94.074219 123.894531 93.074219 120.902344 94.570312 C 117.664062 96.566406 113.429688 98.808594 111.183594 101.796875 C 112.183594 104.789062 112.679688 103.292969 114.675781 103.542969 C 115.917969 103.542969 116.417969 104.039062 117.414062 104.039062 C 118.660156 104.289062 119.90625 103.792969 120.902344 104.289062 C 118.910156 107.53125 117.664062 108.027344 119.160156 110.269531 C 124.394531 109.023438 122.898438 105.785156 126.136719 103.542969 C 129.375 101.300781 132.867188 100.800781 133.613281 97.3125 C 134.359375 94.570312 134.113281 96.066406 136.355469 94.074219 C 137.851562 92.828125 137.851562 91.828125 139.59375 90.832031 C 142.585938 89.335938 147.320312 89.835938 148.8125 91.082031 C 148.8125 92.078125 146.570312 95.566406 150.308594 94.320312 C 152.550781 93.574219 155.042969 91.332031 156.789062 91.082031 C 157.289062 91.828125 157.289062 93.574219 157.039062 94.570312 C 156.789062 97.3125 156.789062 95.816406 158.285156 98.058594 C 157.535156 99.304688 157.535156 99.304688 156.789062 100.300781 C 159.777344 100.300781 161.523438 98.558594 163.269531 100.800781 C 162.519531 104.039062 151.304688 107.53125 148.316406 107.53125 C 144.328125 107.777344 143.582031 107.28125 139.34375 109.273438 C 137.601562 110.269531 133.863281 111.765625 132.867188 113.511719 C 134.859375 114.257812 138.347656 109.773438 142.335938 110.769531 C 142.585938 112.265625 140.09375 112.511719 139.84375 115.003906 C 141.585938 117.996094 144.328125 115.753906 146.324219 116.5 C 146.089844 116.734375 145.019531 117.300781 143.628906 117.949219 C 144.035156 117.863281 144.4375 117.796875 144.828125 117.746094 C 143.332031 118.742188 143.082031 118.742188 141.339844 119.242188 C 139.410156 119.722656 139.8125 120.207031 138.714844 120.011719 C 138.027344 120.261719 137.386719 120.476562 136.855469 120.617188 C 133.429688 123.0625 132.691406 122.453125 131.371094 122.230469 C 132.617188 121.734375 132.367188 121.984375 133.363281 121.734375 C 133.753906 121.539062 134.453125 120.730469 136.417969 120.03125 L 139.84375 117.746094 C 137.601562 116.75 133.613281 119.492188 131.371094 120.488281 C 125.847656 123.148438 127.375 122.449219 125.625 124.453125 C 126.003906 124.234375 126.375 123.984375 127.132812 123.476562 C 127.132812 123.976562 126.386719 124.476562 125.390625 125.222656 C 125.886719 125.222656 125.886719 125.222656 126.386719 125.472656 C 123.441406 127.734375 121.53125 127.53125 118.960938 128.972656 C 118.703125 129.117188 118.4375 129.28125 118.164062 129.460938 C 117.945312 129.625 117.699219 129.789062 117.4375 129.957031 Z M 97.726562 166.839844 C 97.480469 166.339844 97.480469 166.339844 96.980469 166.089844 C 97.976562 164.347656 96.980469 165.34375 98.226562 164.847656 Z M 97.726562 166.839844 C 98.726562 167.089844 98.226562 166.589844 98.226562 167.835938 Z M 144.726562 74.945312 C 144.433594 74.960938 143.949219 75.007812 143.082031 75.132812 C 141.339844 75.382812 140.339844 76.128906 139.09375 75.632812 C 139.84375 74.636719 143.082031 72.890625 144.328125 73.140625 C 143.582031 73.636719 143.582031 73.636719 142.832031 74.386719 C 144.078125 74.136719 144.578125 73.140625 146.570312 72.640625 C 149.3125 71.894531 148.8125 72.640625 150.308594 72.640625 C 152.304688 72.640625 152.550781 71.644531 154.046875 72.390625 C 154.535156 72.601562 154.886719 72.695312 155.179688 72.730469 C 156.414062 72.472656 157.679688 72.292969 158.78125 72.390625 C 158.375 72.578125 158.015625 72.734375 157.691406 72.867188 C 157.722656 72.875 157.753906 72.882812 157.785156 72.890625 C 158.535156 73.636719 157.535156 74.136719 158.535156 74.636719 C 159.28125 75.132812 161.023438 75.132812 160.777344 75.882812 C 160.027344 77.875 157.039062 75.882812 155.042969 76.628906 C 154.046875 77.875 156.289062 77.875 154.546875 79.371094 C 152.800781 79.617188 152.550781 78.621094 150.808594 79.617188 C 151.804688 80.117188 151.804688 80.117188 152.550781 80.617188 C 149.3125 82.359375 147.570312 79.371094 146.074219 79.121094 C 144.078125 79.371094 142.585938 80.367188 141.585938 79.867188 C 143.082031 78.371094 144.828125 78.871094 146.570312 78.621094 C 147.816406 77.875 148.316406 77.128906 149.8125 76.878906 C 151.304688 76.878906 150.808594 77.625 153.300781 76.378906 C 153.050781 76.128906 151.804688 75.882812 150.808594 74.882812 C 150.605469 74.679688 150.269531 74.429688 149.863281 74.246094 C 147.984375 74.5625 145.9375 74.964844 144.578125 75.132812 C 144.628906 75.070312 144.675781 75.003906 144.726562 74.945312 Z M 303.070312 145.40625 C 308.304688 159.363281 311.292969 174.566406 311.042969 190.265625 L 311.042969 193.753906 C 310.796875 191.261719 311.042969 188.019531 310.796875 186.027344 C 309.300781 177.804688 309.796875 177.304688 308.304688 171.324219 C 308.054688 170.328125 307.554688 168.832031 307.304688 167.835938 C 306.558594 166.089844 306.558594 164.847656 306.058594 163.351562 L 306.058594 165.34375 L 304.566406 161.855469 C 304.566406 163.101562 307.304688 172.074219 307.804688 174.066406 C 308.550781 177.804688 308.550781 175.3125 309.050781 180.546875 C 309.300781 183.285156 309.796875 184.035156 310.046875 186.277344 C 310.296875 191.511719 310.796875 190.265625 310.796875 195.996094 L 310.796875 197.742188 C 310.296875 203.472656 309.550781 208.953125 308.550781 214.4375 C 308.054688 216.679688 306.808594 221.164062 306.558594 222.160156 C 305.0625 227.144531 304.566406 229.140625 303.566406 232.378906 C 303.320312 232.628906 303.320312 232.628906 303.320312 232.878906 C 301.824219 237.363281 299.832031 241.601562 297.835938 245.835938 L 295.59375 250.320312 C 295.34375 251.070312 295.09375 251.320312 294.847656 251.816406 C 290.359375 259.542969 285.128906 266.769531 279.148438 273.496094 C 276.65625 275.988281 275.410156 277.234375 275.65625 275.988281 C 275.410156 273 278.648438 266.519531 278.148438 261.785156 C 276.65625 253.3125 284.128906 249.324219 283.882812 238.609375 C 283.632812 234.125 281.140625 231.882812 280.890625 228.144531 C 280.640625 224.15625 282.386719 218.175781 280.144531 214.933594 C 273.664062 206.214844 264.691406 213.9375 256.46875 214.933594 C 241.269531 216.679688 243.011719 210.449219 234.789062 199.234375 C 231.300781 194.5 231.050781 195.746094 232.296875 189.515625 C 233.292969 184.035156 232.296875 178.550781 233.042969 173.070312 C 234.539062 161.109375 243.761719 158.367188 248.246094 148.898438 C 252.980469 138.679688 254.476562 143.414062 268.929688 140.671875 C 282.882812 138.679688 278.398438 145.40625 286.621094 152.386719 C 296.589844 162.105469 291.109375 149.644531 299.832031 156.621094 C 301.574219 158.367188 304.566406 160.859375 305.3125 159.863281 C 305.8125 159.113281 304.566406 152.136719 304.066406 151.140625 C 303.070312 149.144531 303.566406 151.140625 302.820312 150.640625 C 301.824219 149.894531 302.074219 148.648438 300.828125 148.648438 C 300.328125 148.648438 299.332031 147.898438 298.585938 146.15625 C 297.835938 144.910156 298.085938 144.660156 297.585938 143.664062 C 296.589844 141.421875 297.089844 143.164062 296.339844 141.171875 C 297.089844 141.171875 297.339844 141.671875 297.585938 141.671875 C 298.085938 141.671875 297.835938 140.921875 298.085938 140.671875 C 298.585938 140.425781 298.585938 140.921875 299.082031 141.171875 C 299.332031 141.171875 299.082031 140.671875 299.582031 140.671875 C 300.578125 141.171875 302.570312 145.65625 303.070312 145.65625 Z M 166.007812 66.910156 C 168.5 66.660156 171.492188 66.410156 174.234375 66.410156 C 176.476562 66.164062 177.972656 65.914062 180.464844 65.664062 C 184.699219 65.414062 190.929688 66.164062 196.410156 66.410156 C 201.894531 66.910156 205.882812 67.40625 210.867188 68.15625 C 214.105469 68.902344 214.355469 69.152344 217.59375 69.898438 C 218.339844 69.898438 222.578125 71.144531 222.578125 71.144531 C 218.09375 70.648438 218.589844 69.898438 217.59375 71.144531 C 216.847656 72.390625 213.605469 71.394531 211.113281 71.644531 L 214.601562 73.140625 C 213.855469 73.140625 210.367188 71.644531 209.371094 72.144531 C 208.375 72.390625 212.359375 73.140625 212.359375 73.390625 C 210.117188 73.886719 205.632812 73.140625 202.640625 73.140625 C 199.152344 73.140625 198.65625 74.136719 193.917969 74.386719 C 189.433594 74.636719 187.9375 74.636719 185.695312 76.628906 C 183.703125 78.371094 181.957031 79.371094 177.722656 78.125 C 172.738281 76.628906 174.980469 74.882812 174.980469 74.882812 C 175.230469 73.886719 174.730469 74.386719 174.730469 73.636719 C 174.730469 71.894531 180.960938 72.144531 180.214844 70.398438 C 179.464844 69.152344 178.71875 70.148438 177.972656 68.902344 C 176.226562 66.410156 169 67.90625 165.511719 67.40625 Z M 256.96875 107.28125 C 255.472656 103.542969 254.972656 106.285156 253.726562 103.792969 C 252.480469 101.796875 252.730469 101.546875 254.226562 101.050781 C 255.222656 101.796875 255.222656 101.796875 256.46875 102.546875 L 255.472656 103.542969 C 259.957031 107.03125 258.214844 105.535156 261.203125 109.773438 C 262.449219 110.269531 262.449219 110.269531 263.445312 110.769531 C 263.199219 111.765625 262.699219 111.019531 262.449219 111.765625 C 262.199219 112.511719 262.699219 112.015625 262.449219 112.761719 C 258.464844 112.265625 258.464844 112.265625 254.476562 112.015625 C 255.472656 111.019531 256.71875 112.511719 257.464844 111.019531 C 256.21875 110.269531 256.21875 110.269531 254.972656 109.773438 C 254.726562 107.28125 256.21875 108.277344 256.96875 107.28125 Z M 87.261719 174.316406 C 87.511719 173.070312 87.761719 173.070312 88.757812 172.320312 C 89.503906 171.824219 90.003906 171.824219 91 171.574219 C 95.234375 170.828125 101.714844 175.5625 103.210938 177.304688 C 100.71875 178.800781 99.722656 177.804688 96.234375 177.804688 L 96.730469 176.308594 C 94.738281 175.0625 93.988281 173.816406 92.246094 173.070312 C 90.003906 172.074219 89.503906 173.320312 87.261719 174.316406 Z M 213.359375 75.132812 C 213.605469 76.378906 211.613281 77.375 209.867188 77.625 C 207.375 78.125 208.125 79.121094 204.882812 78.621094 C 205.132812 77.625 207.128906 76.878906 208.375 76.128906 C 209.621094 75.632812 209.371094 75.632812 211.113281 75.632812 C 213.605469 75.632812 211.863281 75.382812 213.359375 75.132812 Z M 105.703125 180.792969 C 105.203125 179.796875 105.203125 179.796875 104.953125 178.550781 C 108.691406 177.804688 109.9375 178.300781 112.929688 180.546875 C 108.445312 183.535156 106.699219 181.792969 104.207031 182.039062 C 102.464844 182.289062 103.210938 182.289062 101.464844 181.792969 C 102.960938 180.792969 103.210938 181.792969 105.703125 180.792969 Z M 130.871094 80.863281 C 132.367188 79.617188 133.613281 78.621094 135.109375 78.371094 C 139.09375 78.125 136.851562 79.867188 136.851562 80.117188 C 133.113281 79.371094 132.867188 81.363281 130.871094 80.863281 Z M 150.308594 71.394531 C 152.550781 70.398438 155.292969 69.402344 157.289062 69.652344 C 156.789062 69.898438 154.546875 70.648438 154.046875 70.898438 C 153.050781 71.144531 150.808594 71.394531 150.308594 71.394531 Z M 282.882812 140.425781 C 283.882812 139.675781 284.378906 140.425781 286.125 140.921875 L 286.125 142.917969 C 284.378906 141.671875 284.378906 141.671875 282.882812 140.425781 Z M 128.128906 125.722656 C 129.625 124.722656 130.375 124.476562 131.867188 124.226562 C 130.375 124.972656 130.375 124.972656 128.628906 125.96875 C 128.378906 125.96875 128.378906 125.96875 128.128906 125.722656 Z M 95.234375 182.039062 C 96.234375 181.042969 97.480469 181.292969 98.476562 182.789062 C 96.480469 183.285156 96.480469 183.535156 95.234375 182.039062 Z M 114.921875 181.542969 C 115.671875 180.546875 116.917969 180.792969 117.914062 181.542969 C 116.667969 183.285156 115.917969 183.285156 114.921875 181.542969 Z M 97.726562 163.351562 L 97.726562 161.855469 L 99.222656 161.855469 Z M 102.464844 173.320312 C 103.460938 172.820312 103.460938 172.820312 104.207031 173.320312 C 102.960938 174.066406 103.460938 174.066406 102.464844 173.320312 Z M 102.464844 173.320312 " fill-opacity="1" fill-rule="evenodd"/><g clip-path="url(#831d9cce76)"><path fill="#93bed1" d="M 90.589844 279.910156 L 91.308594 279.320312 L 57.671875 244.710938 C 60.265625 250.441406 61.222656 251.007812 64.59375 257.296875 L 64.074219 257.574219 C 60.417969 250.75 59.460938 250.542969 56.203125 243.324219 L 54.613281 239.382812 C 52.417969 233.242188 51.492188 229.566406 49.15625 219.359375 L 49.09375 219.375 C 46.707031 209.035156 45.539062 198.492188 45.519531 187.878906 L 45.359375 187.835938 C 45.417969 187.605469 45.46875 187.390625 45.519531 187.191406 C 45.535156 181.371094 45.898438 175.277344 46.597656 169.433594 C 49.300781 147.804688 56.902344 127.683594 68.246094 110.203125 L 68.289062 110.070312 L 68.328125 110.082031 C 93.671875 71.121094 137.640625 45.320312 187.4375 45.320312 C 240.796875 45.320312 287.335938 74.808594 311.625 118.363281 L 311.988281 119.019531 C 320.003906 133.570312 325.542969 149.679688 328.035156 166.769531 L 328.261719 167.371094 L 328.128906 167.421875 C 329.050781 173.957031 329.527344 180.628906 329.527344 187.410156 C 329.527344 198.914062 328.15625 210.097656 325.570312 220.824219 L 325.390625 221.558594 C 317.042969 255.324219 296.609375 284.351562 268.953125 303.773438 L 268.851562 303.839844 C 248.433594 318.15625 224.082031 327.238281 197.761719 329.128906 C 193.835938 329.578125 191.417969 329.5 191.417969 329.5 L 191.417969 329.445312 C 190.101562 329.480469 188.773438 329.5 187.4375 329.5 C 171.6875 329.5 155.632812 326.246094 140.707031 320.921875 L 140.125 320.710938 C 135.039062 318.875 130.089844 316.800781 125.332031 314.535156 C 125.257812 314.527344 125.214844 314.523438 125.214844 314.523438 C 125.214844 314.523438 125.238281 314.515625 125.265625 314.5 C 108.164062 306.34375 93.546875 295.710938 84.054688 284.800781 L 83.8125 284.554688 L 84.019531 284.644531 L 83.796875 284.539062 C 82.300781 282.796875 81.054688 281.550781 79.5625 279.804688 C 79.558594 279.804688 79.554688 279.800781 79.554688 279.796875 C 77.558594 277.304688 74.8125 274.058594 71.816406 269.816406 C 69.070312 265.820312 66.324219 261.824219 64.078125 257.828125 L 64.589844 257.539062 C 66.828125 261.519531 69.5625 265.5 72.300781 269.480469 C 75.285156 273.707031 78.019531 276.941406 80.007812 279.429688 C 81.5 281.167969 82.746094 282.410156 84.234375 284.148438 L 84.445312 284.359375 Z M 280.617188 291.140625 C 295.0625 273.980469 308.191406 250.597656 307.996094 250.5 C 299.484375 257.003906 291.867188 260.050781 265.925781 269.53125 L 265.8125 269.664062 C 276.324219 284.378906 277.890625 286.582031 280.273438 291.058594 L 280.285156 291.054688 C 280.40625 291.007812 280.539062 291.042969 280.617188 291.140625 Z M 214.480469 50.304688 L 235.246094 86.90625 C 235.242188 86.765625 235.242188 86.625 235.242188 86.484375 L 235.535156 86.484375 L 235.796875 86.351562 C 236.023438 86.804688 236.066406 87.257812 236.074219 87.707031 L 236.890625 87.773438 C 247.652344 78.445312 252.90625 75.226562 257.347656 72.636719 C 245.996094 63.816406 231.1875 56.019531 229.671875 55.152344 C 231.316406 60.03125 235.144531 72.535156 236.621094 85.953125 L 236.589844 85.957031 L 236.621094 86.203125 L 236.035156 86.265625 C 234.464844 71.964844 230.730469 60.023438 228.882812 54.992188 C 222.339844 52.242188 218.53125 51.339844 214.480469 50.304688 Z M 62.59375 174.125 L 87.328125 206.132812 L 87.484375 205.742188 L 87.644531 205.804688 C 102.382812 192.542969 102.546875 192.394531 119.253906 178.351562 C 96.914062 176.5625 88.980469 175.996094 62.59375 174.125 Z M 161.496094 129.847656 L 190.949219 137.6875 C 181.632812 127.753906 171.726562 117.589844 156.078125 101.640625 L 156.234375 101.492188 C 153.757812 98.957031 151.175781 96.324219 148.464844 93.558594 L 148.144531 93.128906 L 147.953125 93.269531 Z M 50.484375 189.429688 L 49.402344 181.4375 L 49.089844 181.644531 C 46.882812 184.738281 46.679688 185.019531 46.109375 187.265625 C 46.082031 197.960938 47.226562 208.582031 49.609375 218.996094 L 49.664062 218.980469 C 52.183594 229.855469 52.648438 231.175781 56.230469 240.769531 C 54.683594 225.285156 54.671875 218.0625 55.53125 208.175781 C 55.15625 207.5625 54.769531 206.921875 54.363281 206.253906 C 54.347656 206.226562 54.335938 206.199219 54.328125 206.171875 C 52.332031 198.1875 51.085938 193.449219 50.339844 189.457031 Z M 148.621094 310.199219 C 146.320312 313.742188 144.261719 316.40625 141.089844 320.4375 C 155.519531 325.566406 171.015625 328.75 186.261719 328.90625 C 170.355469 324.476562 169.507812 323.921875 148.960938 310.304688 C 148.890625 310.292969 148.828125 310.269531 148.777344 310.238281 L 148.753906 310.234375 L 148.675781 310.214844 Z M 75.585938 237.457031 C 68.929688 239.675781 64.59375 240.789062 57.320312 242.847656 L 81.328125 253.589844 L 97.894531 261.234375 L 103.371094 263.761719 C 89.519531 251.640625 88.898438 251.015625 75.589844 237.707031 L 75.753906 237.539062 C 75.691406 237.53125 75.632812 237.503906 75.585938 237.457031 Z M 321.363281 192.488281 C 315.457031 193.203125 310.769531 193.765625 306.628906 194.246094 L 306.601562 194.410156 C 306.601562 206.894531 306.242188 208.773438 305.488281 219.066406 C 309.679688 212.460938 314.695312 203.800781 321.363281 192.488281 Z M 263.980469 269.25 C 238.742188 256.75 238.109375 256.410156 207.398438 239.726562 C 206.691406 257.257812 206.667969 257.828125 205.976562 273.664062 C 224.183594 273.3125 234.40625 272.289062 263.980469 269.25 Z M 264.445312 270.746094 L 212.722656 309.003906 L 212.742188 309.035156 C 212.667969 309.070312 212.59375 309.113281 212.519531 309.15625 L 212.476562 309.191406 C 226.84375 306.703125 235.726562 305.152344 242.960938 303.519531 C 253.496094 289.238281 254.105469 288.214844 264.445312 270.746094 Z M 173.699219 71.449219 C 167.351562 76.230469 161.246094 81.347656 150.164062 90.171875 L 148.382812 91.488281 L 149.0625 91.421875 L 191.511719 84.984375 Z M 120.3125 178.4375 C 120.265625 178.46875 120.210938 178.484375 120.152344 178.484375 C 120.113281 178.484375 120.074219 178.476562 120.039062 178.460938 L 120.027344 178.472656 L 120.1875 178.515625 C 113.800781 202.34375 113.710938 202.675781 108.695312 225.132812 L 154.121094 181.171875 C 139.574219 179.992188 128.886719 179.125 120.3125 178.4375 Z M 277.089844 215.71875 C 272.261719 243.476562 272.160156 243.964844 265.9375 268.617188 C 287.402344 243.707031 296.128906 233.050781 304.757812 219.882812 C 293.386719 218.421875 291.910156 218.585938 277.089844 215.71875 Z M 205.363281 274.261719 C 196.324219 274.425781 185.289062 274.425781 169.015625 274.425781 C 190.886719 294.132812 191.277344 294.460938 210.429688 309.066406 C 208.328125 294.601562 208.265625 294.179688 205.339844 274.925781 C 205.335938 274.90625 205.335938 274.886719 205.335938 274.867188 Z M 193.484375 137.9375 L 243.054688 159.785156 L 229.410156 129.496094 L 193.546875 137.804688 L 193.550781 137.804688 Z M 305.558594 194.371094 C 290.589844 196.09375 282.410156 196.714844 247.558594 199.335938 C 262.5625 207.074219 262.871094 207.238281 276.957031 214.769531 C 292.515625 204.476562 292.808594 204.269531 305.707031 194.472656 C 305.660156 194.449219 305.613281 194.433594 305.558594 194.433594 Z M 280.832031 169.496094 L 280.839844 169.503906 L 306.175781 193.375 C 310.707031 165.714844 310.761719 165.167969 311.71875 140.273438 Z M 61.976562 174.285156 C 66.820312 204.273438 67.066406 205.257812 75.828125 236.285156 C 80.652344 222.730469 80.882812 222.128906 87.074219 206.765625 Z M 321.285156 193.734375 L 321.09375 194.097656 C 314.53125 205.234375 309.945312 212.988281 305.753906 219.535156 L 305.648438 219.703125 C 305.648438 219.703125 308.886719 247.882812 308.800781 248.988281 C 308.941406 248.527344 309.628906 248.324219 309.546875 248.574219 C 311.542969 246.945312 313.695312 245.070312 316.230469 242.835938 L 316.347656 242.730469 L 317.015625 242.148438 L 317.78125 241.46875 L 318.484375 240.847656 C 321.132812 234.371094 323.3125 227.65625 324.984375 220.742188 C 325.4375 208.878906 325.367188 208.300781 321.726562 193.488281 Z M 81.308594 118.316406 L 81.28125 118.277344 L 62.765625 131.503906 C 60.761719 141.078125 60.816406 149.523438 61.113281 171.765625 L 61.15625 171.789062 C 69.683594 145.523438 70.042969 144.601562 81.308594 118.316406 Z M 328.636719 178.105469 C 327.476562 183.59375 327.011719 184.339844 322.03125 192.261719 L 322.027344 192.277344 C 322.035156 192.292969 322.039062 192.308594 322.042969 192.324219 C 325.601562 206.78125 325.992188 208.371094 325.683594 217.707031 C 327.816406 207.9375 328.941406 197.804688 328.941406 187.410156 C 328.941406 184.285156 328.839844 181.1875 328.636719 178.105469 Z M 284.742188 116.65625 L 284.609375 116.351562 C 284.570312 116.515625 284.378906 116.683594 284.378906 116.683594 C 284.378906 116.683594 284.320312 116.6875 284.234375 116.644531 L 284.0625 116.558594 L 283.925781 116.730469 C 291.398438 122.128906 299.164062 128.464844 312.050781 138.988281 C 313.199219 127.5 313.210938 127.019531 311.433594 119.230469 C 309.320312 115.402344 307.039062 111.683594 304.59375 108.082031 Z M 120.027344 150.226562 C 86.597656 162.097656 86.019531 162.3125 61.996094 173.492188 C 89.117188 175.417969 96.910156 175.972656 119.859375 177.8125 C 119.859375 163.910156 119.863281 163.617188 120.101562 150.289062 Z M 192.742188 85.355469 L 192.761719 136.144531 C 207.035156 119.515625 214.804688 111.019531 221.859375 103.234375 L 230.578125 93.515625 L 234.515625 88.957031 L 234.363281 88.800781 Z M 56.050781 209.035156 C 55.273438 218.808594 55.363281 226.210938 56.976562 242.335938 C 64.289062 240.261719 68.632812 239.15625 75.210938 236.960938 C 64.351562 222.480469 63.5625 221.402344 56.050781 209.035156 Z M 231.023438 93.902344 L 231.019531 93.90625 L 222.296875 103.625 C 215.214844 111.4375 207.417969 119.96875 193.039062 136.722656 L 193.128906 136.988281 L 193.152344 137.007812 L 193.136719 137.019531 L 193.167969 137.117188 L 193.347656 137.058594 L 192.984375 137.332031 L 229.289062 128.921875 L 236.238281 90.449219 L 235.742188 90.503906 L 235.65625 89.742188 L 235.492188 89.765625 L 235.367188 88.875 Z M 168.421875 274.683594 C 157.359375 295.207031 152.773438 303.703125 149.019531 309.582031 L 149.183594 309.730469 C 179.207031 311.207031 179.5 311.214844 210.050781 309.519531 C 190.84375 294.875 190.5 294.578125 168.421875 274.683594 Z M 155.109375 181.34375 L 154.84375 181.289062 L 109.082031 225.578125 L 161.882812 232.644531 C 158.820312 211.148438 156.839844 196.167969 155.109375 181.34375 Z M 246.347656 199.695312 C 226.875 219.414062 217.089844 229.320312 207.355469 238.679688 L 207.410156 238.929688 C 207.421875 238.976562 207.421875 239.023438 207.410156 239.066406 C 238.679688 256.054688 238.945312 256.199219 264.988281 269.09375 C 264.9375 268.925781 264.894531 268.765625 264.894531 268.652344 L 264.933594 268.652344 Z M 145.945312 92.277344 C 112.964844 92.785156 102.839844 92.976562 91.324219 96.625 C 87.511719 104.808594 86.9375 106.140625 83.136719 115.441406 L 83.292969 115.511719 L 82.941406 116.300781 L 84.089844 115.410156 L 84.449219 115.871094 L 83.441406 116.65625 C 111.300781 103.78125 112.179688 103.453125 145.945312 92.277344 Z M 282.859375 117.117188 L 229.996094 129.359375 L 243.855469 160.136719 L 244.429688 160.390625 L 272.445312 129.148438 L 272.566406 129.257812 C 276.808594 124.417969 279.988281 120.667969 282.859375 117.117188 Z M 192.617188 139.472656 C 194.453125 162.90625 194.503906 163.640625 196.1875 188.875 C 209.414062 191.496094 220.382812 193.679688 245.492188 198.671875 C 224.585938 174.9375 212.292969 160.96875 201.675781 149.304688 C 198.882812 146.246094 196.1875 143.3125 193.527344 140.449219 L 193.015625 139.902344 Z M 321.445312 191.886719 C 321.394531 191.441406 321.886719 190.980469 321.949219 191.285156 C 326.960938 183.3125 327.003906 183.121094 328.449219 176.136719 L 328.496094 176.148438 C 328.253906 173.042969 327.90625 169.96875 327.464844 166.917969 C 322.863281 154.726562 322.570312 154.175781 312.859375 140.84375 L 312.878906 140.953125 L 312.921875 141.167969 L 312.9375 141.25 L 312.953125 141.316406 L 313 141.503906 L 313.019531 141.566406 L 313.046875 141.652344 L 313.066406 141.714844 L 312.507812 141.898438 C 312.398438 141.570312 312.335938 141.242188 312.28125 140.910156 C 311.34375 165.285156 311.253906 166.003906 306.726562 193.644531 C 310.859375 193.164062 315.546875 192.597656 321.445312 191.886719 Z M 273.839844 91.761719 C 272.488281 89.613281 265.472656 79.710938 258 72.945312 C 253.496094 75.511719 248.386719 78.59375 237.714844 87.84375 C 258.578125 89.550781 265.75 89.792969 273.839844 91.761719 Z M 274.640625 91.769531 C 279.796875 92.53125 288.5 96.253906 295.882812 99.894531 L 295.90625 99.863281 L 297.140625 98.171875 C 296.738281 97.5625 296.296875 97.050781 295.75 96.398438 C 286.8125 85.777344 276.34375 76.488281 264.683594 68.867188 C 262.140625 70.300781 260.199219 71.535156 258.535156 72.644531 C 267.769531 81.328125 273.058594 89.449219 274.640625 91.769531 Z M 190.910156 138.285156 L 161.554688 130.472656 L 155.402344 178.734375 L 155.429688 178.984375 L 155.570312 179.03125 C 155.53125 179.144531 155.5 179.253906 155.472656 179.355469 L 155.476562 179.386719 C 172.761719 159.101562 173.386719 158.375 190.910156 138.285156 Z M 228.148438 51.863281 C 228.703125 52.9375 229.164062 53.929688 229.371094 54.339844 C 233.761719 56.375 247.410156 63.847656 257.96875 72.28125 C 259.214844 71.417969 261.53125 70.066406 264.105469 68.488281 C 253.074219 61.359375 240.996094 55.722656 228.148438 51.863281 Z M 206.769531 239.242188 C 197.332031 248.300781 187.761719 257.019531 169.28125 273.839844 C 185.433594 273.839844 196.402344 273.835938 205.386719 273.671875 C 206.085938 257.667969 206.101562 257.234375 206.832031 239.25 Z M 242.242188 160.066406 L 192.515625 138.152344 L 192.542969 138.523438 L 193.074219 139.09375 L 193.726562 139.800781 L 193.953125 140.042969 C 196.640625 142.929688 199.320312 145.84375 202.117188 148.914062 C 213.835938 161.75 227.207031 176.777344 246.15625 198.289062 C 245.214844 182.527344 244.496094 170.808594 243.78125 161.40625 L 243.558594 160.90625 C 243.09375 160.679688 242.632812 160.429688 242.167969 160.277344 Z M 83.207031 117.414062 L 82.148438 117.902344 C 82.140625 117.90625 82.128906 117.910156 82.121094 117.914062 C 70.582031 144.835938 70.300781 145.523438 61.679688 172.089844 C 61.917969 171.84375 62.507812 171.40625 62.507812 171.40625 L 84.050781 147.34375 L 84.269531 147.539062 L 84.054688 147.335938 C 89.535156 141.453125 94.261719 136.636719 99.371094 131.816406 Z M 195.890625 190.402344 L 195.710938 190.402344 L 195.699219 190.457031 L 195.503906 190.417969 L 163 232.792969 L 206.339844 238.59375 L 206.527344 238.414062 L 206.664062 238.28125 L 203.539062 224.351562 C 202.03125 217.640625 200.519531 210.933594 199.007812 204.230469 Z M 71.261719 106.769531 C 70.417969 107.984375 69.589844 109.214844 68.785156 110.457031 C 65.972656 119.402344 64.132812 125.269531 62.949219 130.652344 L 81.785156 117.195312 L 82.101562 116.425781 Z M 297.558594 98.59375 L 296.417969 100.160156 C 297.640625 100.761719 298.925781 101.402344 300.296875 102.085938 C 299.398438 100.90625 298.488281 99.742188 297.558594 98.59375 Z M 317.394531 242.59375 L 316.816406 243.101562 L 316.816406 244.75 C 317.210938 243.867188 317.59375 242.980469 317.972656 242.082031 Z M 155.714844 181.460938 C 157.441406 196.214844 159.417969 211.148438 162.460938 232.53125 L 195.230469 189.808594 L 195.332031 189.304688 C 185.617188 187.378906 174.535156 185.1875 155.714844 181.460938 Z M 146.898438 92.972656 C 133.902344 119.203125 133.734375 119.585938 120.753906 149.707031 C 136.929688 164.65625 137.101562 164.8125 154.601562 180.367188 L 154.808594 178.730469 L 154.75 178.222656 L 154.875 178.210938 L 160.945312 130.589844 L 122.53125 150.042969 L 122.265625 149.519531 L 160.90625 129.949219 L 147.574219 93.929688 L 147.070312 92.929688 Z M 242.191406 304.292969 C 235.335938 305.808594 226.914062 307.285156 213.855469 309.550781 L 213.878906 309.8125 L 211.351562 310.023438 L 211.039062 310.253906 C 211.015625 310.273438 210.984375 310.285156 210.953125 310.296875 C 210.886719 310.320312 210.8125 310.34375 210.75 310.363281 C 199.339844 323.910156 198.988281 324.253906 189.714844 328.894531 C 192.410156 328.851562 195.089844 328.734375 197.75 328.539062 C 207.828125 327.386719 227.878906 322.746094 242.191406 304.292969 Z M 192.207031 84.878906 L 192.453125 84.84375 L 234.371094 88.347656 L 234.304688 87.9375 C 205.015625 78.023438 203.511719 77.667969 174.59375 70.78125 C 174.433594 70.898438 174.277344 71.015625 174.121094 71.132812 Z M 199.597656 204.167969 C 201.117188 210.914062 202.636719 217.664062 204.152344 224.414062 L 207.160156 237.804688 C 216.777344 228.550781 226.511719 218.695312 245.660156 199.304688 C 220.484375 194.296875 209.46875 192.105469 196.289062 189.496094 Z M 99.8125 132.210938 C 94.699219 137.03125 89.972656 141.847656 84.484375 147.738281 C 84.246094 148.003906 62.015625 172.835938 62.019531 172.832031 C 85.726562 161.800781 86.492188 161.511719 119.527344 149.78125 Z M 312.464844 121.132812 C 313.808594 127.238281 313.683594 128.570312 312.589844 139.480469 C 322.308594 152.808594 323.1875 154.035156 327.027344 164.101562 C 324.488281 148.8125 319.492188 134.351562 312.464844 121.132812 Z M 266.445312 303.882812 C 263.34375 306.328125 260.414062 308.3125 255.589844 311.421875 C 259.742188 309.132812 263.769531 306.640625 267.652344 303.960938 L 266.734375 303.890625 M 167.09375 49.144531 C 157.902344 63.285156 157.652344 63.84375 147.703125 91.085938 C 159.007812 82.082031 173.195312 70.996094 173.195312 70.996094 C 170.027344 57.339844 168.964844 56.160156 167.09375 49.144531 Z M 192.042969 85.386719 L 148.511719 92.398438 L 148.179688 92.429688 C 166.253906 110.851562 178.621094 123.578125 191.59375 137.503906 L 191.703125 137.378906 L 192.058594 136.964844 L 192.148438 85.46875 Z M 138.878906 54.503906 C 127.894531 58.53125 117.535156 63.890625 108.007812 70.378906 C 110.714844 71.09375 112.863281 71.667969 114.816406 72.300781 C 121.019531 67.027344 138.878906 54.503906 138.878906 54.503906 Z M 245.839844 160.714844 L 280.183594 169.300781 L 310.789062 140.34375 Z M 237.089844 88.382812 C 262.097656 102.589844 272.566406 108.566406 283.441406 116.378906 L 283.457031 116.375 C 287.332031 111.542969 290.714844 106.96875 295.53125 100.375 C 278.164062 91.824219 274.5625 91.449219 237.089844 88.382812 Z M 250.101562 314.292969 L 250.078125 314.257812 C 264.851562 304.808594 265.25 304.558594 279.019531 292.164062 C 261.648438 298.804688 254.386719 301.53125 243.304688 304.042969 L 242.996094 304.460938 L 242.875 304.371094 C 231.601562 319.070312 216.726562 325.183594 205.867188 327.71875 C 221.566406 325.671875 236.460938 321.046875 250.101562 314.292969 Z M 90.5625 96.871094 C 85.769531 98.445312 80.648438 100.621094 73.476562 103.675781 C 72.84375 104.539062 72.21875 105.40625 71.601562 106.285156 L 82.335938 115.851562 C 86.292969 106.15625 86.867188 104.804688 90.5625 96.871094 Z M 214.101562 50.953125 C 197.796875 56.105469 190.761719 58.921875 176.492188 69.378906 L 175.667969 69.984375 L 175.207031 70.324219 C 203.960938 77.171875 205.027344 77.503906 235.003906 87.652344 Z M 236.109375 88.503906 L 236.324219 90.433594 L 236.820312 90.523438 L 229.910156 128.777344 L 282.679688 116.554688 C 271.863281 108.828125 261.261719 102.792969 236.109375 88.503906 Z M 105.257812 264.632812 L 105.425781 264.707031 C 106.148438 246.585938 106.167969 246.292969 107.863281 226.214844 C 91.261719 232.054688 82.363281 235.183594 76.097656 237.285156 L 76.074219 237.347656 L 76.070312 237.359375 C 89.765625 251.054688 89.976562 251.261719 105.257812 264.632812 Z M 205.796875 239.113281 L 162.585938 233.332031 L 162.578125 233.34375 C 164.171875 244.535156 166.058594 257.484375 168.355469 273.074219 C 168.390625 272.96875 168.433594 272.863281 168.484375 272.753906 L 168.75 272.886719 L 169.027344 272.980469 L 169.003906 273.050781 C 187.03125 256.640625 196.5625 247.957031 205.796875 239.113281 Z M 147.367188 310.386719 L 147.429688 310.539062 C 137.246094 314.722656 130.09375 314.8125 126.933594 314.644531 C 131.316406 316.683594 135.855469 318.554688 140.503906 320.230469 C 143.558594 316.347656 145.578125 313.746094 147.75 310.457031 L 147.441406 310.398438 Z M 145.125 93.167969 C 112.417969 103.996094 111.246094 104.453125 83.789062 117.144531 L 99.800781 131.414062 C 110.128906 121.710938 122.140625 111.875 145.125 93.167969 Z M 67.570312 112.355469 C 61.328125 122.308594 56.289062 133.089844 52.664062 144.496094 C 54.796875 139.921875 55.695312 138.773438 60.863281 132.15625 L 61.09375 132.335938 L 60.921875 132.097656 L 62.234375 131.160156 C 63.324219 126.015625 65.011719 120.507812 67.570312 112.355469 Z M 60.667969 174.203125 L 59.808594 174.632812 C 54.398438 177.730469 53.792969 178.117188 49.9375 181.007812 L 51.167969 190.113281 L 51.066406 190.125 C 51.824219 193.945312 53.03125 198.554688 54.886719 205.984375 L 55.621094 207.191406 C 56.34375 199.558594 57.941406 190.160156 60.667969 174.203125 Z M 284.515625 116.128906 L 284.511719 116.117188 L 304.257812 107.585938 C 303.226562 106.082031 302.167969 104.597656 301.082031 103.140625 C 299.277344 102.238281 297.617188 101.40625 296.066406 100.640625 C 291.429688 106.988281 288.121094 111.464844 284.4375 116.089844 L 284.496094 116.121094 C 284.503906 116.121094 284.507812 116.125 284.515625 116.128906 Z M 209.21875 310.152344 C 179.816406 311.785156 178.933594 311.78125 150.113281 310.363281 C 170.59375 323.933594 170.859375 324.019531 188.460938 328.910156 L 188.808594 328.90625 L 188.90625 328.90625 L 188.800781 328.695312 C 198.472656 323.855469 198.71875 323.726562 209.742188 310.644531 L 209.199219 310.800781 L 209.117188 310.515625 L 208.988281 310.253906 C 209.0625 310.214844 209.140625 310.183594 209.21875 310.152344 Z M 244.835938 161.070312 L 244.726562 161.191406 C 244.675781 161.242188 244.617188 161.277344 244.546875 161.285156 C 244.53125 161.339844 244.515625 161.398438 244.496094 161.453125 C 244.488281 161.472656 244.480469 161.492188 244.476562 161.511719 L 244.523438 161.621094 L 244.402344 161.675781 L 244.394531 161.699219 C 245.101562 171.101562 245.820312 182.8125 246.757812 198.527344 C 256.671875 190.304688 264.21875 183.972656 270.332031 178.839844 L 270.222656 178.722656 L 279.675781 169.777344 Z M 105.144531 265.3125 L 104.9375 265.132812 L 57.328125 243.496094 L 91.875 279.0625 C 97.675781 273.027344 97.800781 272.894531 105.144531 265.3125 Z M 177.078125 46.285156 C 177.050781 46.285156 177.027344 46.289062 177 46.289062 C 175.046875 46.417969 169.964844 47.300781 167.550781 48.574219 C 169.523438 55.96875 170.449219 56.476562 173.628906 70.179688 L 175.214844 69.5 L 175.863281 69.113281 C 190.371094 58.445312 197.40625 55.613281 213.796875 50.433594 L 213.527344 50.164062 L 213.515625 50.304688 C 201.375 48.167969 189.613281 46.671875 177.078125 46.285156 Z M 62.058594 132.007812 L 61.300781 132.550781 C 55.117188 140.460938 55.113281 140.472656 51.640625 148.15625 L 51.566406 148.125 C 49.964844 153.691406 48.695312 159.394531 47.785156 165.210938 L 47.929688 165.195312 L 49.671875 178.652344 L 49.382812 178.6875 L 49.671875 178.65625 L 49.859375 180.332031 C 53.722656 177.441406 54.277344 177.117188 60.546875 173.535156 C 60.238281 150.394531 60.128906 141.609375 62.058594 132.007812 Z M 47.179688 169.503906 C 46.566406 174.65625 46.210938 180.058594 46.128906 185.199219 C 46.53125 184.214844 47.140625 183.359375 48.644531 181.257812 L 48.769531 181.347656 L 48.734375 181.230469 L 48.707031 181.195312 L 49.3125 180.738281 L 49.089844 178.722656 L 47.542969 166.804688 C 47.414062 167.695312 47.292969 168.597656 47.179688 169.503906 Z M 267.007812 303.433594 L 268.644531 303.269531 C 272.917969 300.265625 277.019531 297.03125 280.933594 293.582031 C 280.636719 293.007812 280.359375 292.480469 280.101562 291.984375 C 273.855469 297.605469 270.269531 300.824219 267.007812 303.433594 Z M 108.480469 226.089844 L 108.480469 226.101562 C 108.472656 226.125 108.464844 226.144531 108.457031 226.167969 C 106.75 246.390625 106.738281 246.59375 106.003906 264.902344 L 161.753906 233.21875 Z M 171.652344 46.785156 C 168.136719 47.175781 164.652344 47.699219 161.214844 48.347656 C 162.65625 48.234375 164.304688 48.171875 167.207031 48.0625 C 169.351562 47.417969 170.574219 47.054688 171.652344 46.785156 Z M 246.957031 199.6875 L 265.429688 268.234375 C 271.589844 243.828125 271.699219 243.261719 276.515625 215.582031 C 276.515625 215.578125 276.59375 215.242188 276.417969 215.144531 C 262.878906 207.875 262.1875 207.542969 246.957031 199.6875 Z M 61.214844 174.488281 C 58.414062 190.875 56.816406 200.304688 56.132812 208.039062 C 63.878906 220.800781 64.617188 221.851562 75.085938 235.8125 C 66.507812 205.445312 66.214844 204.203125 61.433594 174.609375 C 61.433594 174.609375 61.269531 174.546875 61.214844 174.488281 Z M 265.214844 271.003906 L 265.023438 270.925781 C 254.730469 288.308594 254.023438 289.503906 243.839844 303.320312 C 254.714844 300.808594 262.085938 298.007812 279.722656 291.269531 C 277.378906 286.875 275.78125 284.632812 265.511719 270.253906 Z M 146.203125 93.046875 C 122.800781 112.09375 110.660156 122.019531 100.242188 131.804688 L 120.160156 149.554688 L 120.183594 149.546875 C 133.144531 119.464844 133.359375 118.976562 146.203125 93.046875 Z M 213.117188 49.757812 L 212.355469 49.003906 L 212.859375 48.707031 L 212.976562 48.90625 L 213.011719 48.851562 L 214.566406 49.855469 C 220.582031 51.191406 222.449219 51.824219 228.542969 54.09375 C 228.550781 54.097656 227.375 51.632812 227.375 51.632812 C 214.710938 47.910156 201.304688 45.910156 187.4375 45.910156 C 185.707031 45.910156 183.980469 45.941406 182.265625 46.003906 C 192.835938 46.519531 202.878906 47.867188 213.117188 49.757812 Z M 84.835938 284.800781 C 94.28125 295.515625 108.664062 305.929688 125.457031 313.949219 C 127.011719 314.054688 134.617188 315.03125 146.613281 310.234375 C 112.628906 303.335938 92.320312 280.527344 92.320312 280.527344 L 92.761719 280.136719 C 92.761719 280.136719 112.878906 302.71875 146.535156 309.621094 L 146.625 309.359375 L 146.460938 309.292969 L 146.679688 308.746094 L 147.683594 309.148438 C 127.265625 290.375 126.773438 289.832031 105.796875 265.722656 L 105.660156 265.703125 C 105.640625 265.699219 105.621094 265.695312 105.601562 265.6875 C 98.21875 273.308594 98.105469 273.421875 92.28125 279.492188 C 92.503906 279.757812 91.949219 280.007812 91.863281 279.910156 L 91.589844 279.910156 Z M 107.371094 70.820312 C 94.644531 79.585938 83.417969 90.386719 74.167969 102.742188 C 81.136719 99.777344 86.148438 97.664062 90.902344 96.136719 C 91.234375 95.425781 91.636719 94.871094 92.023438 94.046875 C 91.980469 94.136719 108.90625 77.378906 114.289062 72.75 C 112.320312 72.125 110.136719 71.546875 107.371094 70.820312 Z M 120.6875 150.8125 L 120.449219 177.859375 C 128.933594 178.539062 139.46875 179.394531 153.75 180.550781 L 153.089844 179.894531 L 153.132812 179.847656 C 137.140625 165.632812 136.234375 164.8125 121.621094 151.308594 L 121.453125 151.496094 Z M 139.015625 55.015625 C 127.757812 63.089844 122.785156 66.773438 115.472656 72.515625 C 122.292969 74.824219 127.175781 78.160156 146.6875 91.597656 C 143.753906 77.921875 142.035156 71.03125 141.296875 66.34375 L 141.371094 66.332031 Z M 306.011719 194.980469 C 293.175781 204.726562 292.835938 204.96875 277.390625 215.183594 C 291.90625 218.410156 304.648438 219.375 304.996094 219.480469 C 305.816406 208.347656 306.011719 207.324219 306.011719 194.980469 Z M 264.792969 269.761719 C 234.59375 272.863281 224.351562 273.902344 205.953125 274.25 L 205.925781 274.863281 C 208.871094 294.265625 208.910156 294.527344 211.066406 309.371094 C 211.484375 309.183594 211.816406 308.925781 212.128906 308.714844 Z M 106.59375 265.242188 L 167.902344 274.035156 C 165.570312 258.195312 163.65625 245.058594 162.039062 233.730469 Z M 119.464844 178.941406 C 102.902344 192.867188 102.71875 193.03125 87.953125 206.320312 L 87.90625 206.265625 L 87.746094 206.667969 L 108.105469 225.085938 C 113.101562 202.722656 113.222656 202.242188 119.464844 178.941406 Z M 87.511719 207.246094 C 81.414062 222.378906 81.171875 223.019531 76.347656 236.578125 C 82.558594 234.492188 91.375 231.390625 107.46875 225.730469 L 106.488281 224.75 L 106.664062 224.574219 Z M 283.554688 117.1875 C 276.496094 125.957031 267.636719 135.804688 245.660156 160.152344 L 311.683594 139.445312 C 298.792969 128.917969 291.03125 122.585938 283.554688 117.1875 Z M 166.699219 48.671875 C 160.546875 48.898438 160.375 48.925781 154.339844 49.890625 L 154.328125 49.824219 C 149.585938 50.96875 144.933594 52.351562 140.382812 53.960938 L 139.519531 54.484375 C 140.945312 61.273438 147.144531 90.902344 147.144531 90.902344 C 157.164062 63.464844 157.382812 63.003906 166.699219 48.671875 Z M 280.351562 169.949219 L 270.75 179.03125 L 270.859375 179.164062 C 264.777344 184.273438 257.265625 190.574219 247.398438 198.761719 C 282.519531 196.117188 290.597656 195.503906 305.726562 193.761719 L 280.496094 169.984375 Z M 114.945312 72.964844 C 109.496094 77.621094 92.738281 94.402344 92.738281 94.402344 C 92.671875 94.464844 91.664062 95.898438 91.664062 95.898438 C 102.988281 92.398438 113.3125 92.191406 145.789062 91.691406 C 126.519531 78.421875 121.851562 75.25 114.945312 72.964844 Z M 191.15625 139.5 L 190.847656 139.25 C 173.894531 158.695312 173.046875 159.671875 156.136719 179.515625 L 156.265625 179.625 L 155.59375 180.425781 L 155.644531 180.851562 C 174.671875 184.613281 185.808594 186.816406 195.589844 188.757812 C 193.902344 163.417969 193.863281 162.886719 191.976562 138.78125 L 191.84375 138.640625 Z M 305.136719 220.28125 C 296.488281 233.503906 288.058594 243.84375 266.710938 268.617188 C 292.257812 259.28125 299.113281 256.714844 307.714844 250.035156 L 308.1875 247.976562 C 306.265625 232.113281 305.136719 220.28125 305.136719 220.28125 Z M 106.6875 265.851562 C 127.371094 289.621094 127.839844 290.105469 148.582031 309.175781 C 152.308594 303.335938 156.871094 294.878906 167.792969 274.613281 Z M 316.230469 243.621094 C 313.566406 245.964844 311.324219 247.910156 309.226562 249.589844 C 309.101562 250.011719 308.699219 250.742188 308.699219 250.742188 C 297 270.289062 295.332031 274.054688 280.867188 291.761719 L 280.59375 291.539062 L 280.550781 291.578125 C 280.8125 292.074219 281.089844 292.601562 281.386719 293.183594 C 296.066406 280.128906 308.019531 264.070312 316.269531 245.972656 L 316.230469 245.972656 Z M 316.230469 243.621094 " fill-opacity="1" fill-rule="evenodd"/></g><path fill="#5c80be" d="M 236.035156 90.222656 C 237.03125 90.222656 238.027344 89.472656 238.027344 88.226562 C 238.027344 87.230469 237.28125 86.234375 236.035156 86.234375 C 235.039062 86.234375 234.039062 86.980469 234.039062 88.226562 C 234.039062 89.472656 234.789062 90.222656 236.035156 90.222656 Z M 236.035156 90.222656 " fill-opacity="1" fill-rule="evenodd"/><path fill="#5c80be" d="M 257.878906 74.4375 C 258.875 74.4375 259.871094 73.691406 259.871094 72.445312 C 259.871094 71.449219 259.125 70.449219 257.878906 70.449219 C 256.882812 70.449219 255.882812 71.199219 255.882812 72.445312 C 255.882812 73.691406 256.632812 74.4375 257.878906 74.4375 Z M 257.878906 74.4375 " fill-opacity="1" fill-rule="evenodd"/><path fill="#5c80be" d="M 173.984375 72.777344 C 174.980469 72.777344 175.976562 72.03125 175.976562 70.785156 C 175.976562 69.789062 175.230469 68.789062 173.984375 68.789062 C 172.988281 68.789062 171.988281 69.539062 171.988281 70.785156 C 171.988281 71.78125 172.988281 72.777344 173.984375 72.777344 Z M 173.984375 72.777344 " fill-opacity="1" fill-rule="evenodd"/><path fill="#5c80be" d="M 192.425781 139.8125 C 193.421875 139.8125 194.417969 139.066406 194.417969 137.820312 C 194.417969 136.824219 193.671875 135.824219 192.425781 135.824219 C 191.425781 135.824219 190.429688 136.574219 190.429688 137.820312 C 190.429688 139.066406 191.425781 139.8125 192.425781 139.8125 Z M 192.425781 139.8125 " fill-opacity="1" fill-rule="evenodd"/><path fill="#5c80be" d="M 154.792969 182.675781 C 155.792969 182.675781 156.789062 181.929688 156.789062 180.683594 C 156.789062 179.683594 156.039062 178.6875 154.792969 178.6875 C 153.796875 178.6875 152.800781 179.4375 152.800781 180.683594 C 152.800781 181.929688 153.796875 182.675781 154.792969 182.675781 Z M 154.792969 182.675781 " fill-opacity="1" fill-rule="evenodd"/><path fill="#5c80be" d="M 120.15625 151.773438 C 121.152344 151.773438 122.148438 151.027344 122.148438 149.78125 C 122.148438 148.785156 121.402344 147.789062 120.15625 147.789062 C 119.160156 147.789062 118.160156 148.535156 118.160156 149.78125 C 118.160156 151.027344 119.160156 151.773438 120.15625 151.773438 Z M 120.15625 151.773438 " fill-opacity="1" fill-rule="evenodd"/><path fill="#5c80be" d="M 83.023438 118.878906 C 84.019531 118.878906 85.019531 118.132812 85.019531 116.886719 C 85.019531 115.890625 84.269531 114.894531 83.023438 114.894531 C 82.027344 114.894531 81.03125 115.640625 81.03125 116.886719 C 81.03125 117.882812 82.027344 118.878906 83.023438 118.878906 Z M 83.023438 118.878906 " fill-opacity="1" fill-rule="evenodd"/><path fill="#5c80be" d="M 61.34375 175.199219 C 62.339844 175.199219 63.335938 174.453125 63.335938 173.207031 C 63.335938 172.210938 62.589844 171.210938 61.34375 171.210938 C 60.347656 171.210938 59.351562 171.960938 59.351562 173.207031 C 59.351562 174.453125 60.097656 175.199219 61.34375 175.199219 Z M 61.34375 175.199219 " fill-opacity="1" fill-rule="evenodd"/><path fill="#5c80be" d="M 75.796875 239.246094 C 76.792969 239.246094 77.792969 238.496094 77.792969 237.25 C 77.792969 236.003906 77.042969 235.257812 75.796875 235.257812 C 74.800781 235.257812 73.804688 236.003906 73.804688 237.25 C 73.804688 238.496094 74.800781 239.246094 75.796875 239.246094 Z M 75.796875 239.246094 " fill-opacity="1" fill-rule="evenodd"/><path fill="#5c80be" d="M 105.703125 267.15625 C 106.699219 267.15625 107.695312 266.40625 107.695312 265.160156 C 107.695312 264.164062 106.949219 263.167969 105.703125 263.167969 C 104.707031 263.167969 103.707031 263.914062 103.707031 265.160156 C 103.707031 266.160156 104.707031 267.15625 105.703125 267.15625 Z M 105.703125 267.15625 " fill-opacity="1" fill-rule="evenodd"/><path fill="#5c80be" d="M 168.003906 276.375 C 169 276.375 169.996094 275.628906 169.996094 274.382812 C 169.996094 273.386719 169.25 272.386719 168.003906 272.386719 C 167.003906 272.386719 166.007812 273.136719 166.007812 274.382812 C 166.257812 275.628906 167.003906 276.375 168.003906 276.375 Z M 168.003906 276.375 " fill-opacity="1" fill-rule="evenodd"/><path fill="#5c80be" d="M 195.664062 191.148438 C 196.660156 191.148438 197.65625 190.402344 197.65625 189.15625 C 197.65625 187.910156 196.910156 187.160156 195.664062 187.160156 C 194.667969 187.160156 193.671875 187.910156 193.671875 189.15625 C 193.671875 190.402344 194.667969 191.148438 195.664062 191.148438 Z M 195.664062 191.148438 " fill-opacity="1" fill-rule="evenodd"/><path fill="#5c80be" d="M 108.195312 227.53125 C 109.191406 227.53125 110.1875 226.785156 110.1875 225.539062 C 110.1875 224.542969 109.441406 223.542969 108.195312 223.542969 C 106.949219 223.542969 106.199219 224.292969 106.199219 225.539062 C 106.449219 226.785156 107.195312 227.53125 108.195312 227.53125 Z M 108.195312 227.53125 " fill-opacity="1" fill-rule="evenodd"/><path fill="#5c80be" d="M 162.019531 235.507812 C 163.019531 235.507812 164.015625 234.757812 164.015625 233.511719 C 164.015625 232.515625 163.265625 231.519531 162.019531 231.519531 C 160.777344 231.519531 160.027344 232.265625 160.027344 233.511719 C 160.027344 234.757812 161.023438 235.507812 162.019531 235.507812 Z M 162.019531 235.507812 " fill-opacity="1" fill-rule="evenodd"/><path fill="#5c80be" d="M 246.75 201.613281 C 247.746094 201.613281 248.742188 200.867188 248.742188 199.621094 C 248.742188 198.625 247.996094 197.628906 246.75 197.628906 C 245.753906 197.628906 244.757812 198.375 244.757812 199.621094 C 244.757812 200.617188 245.503906 201.613281 246.75 201.613281 Z M 246.75 201.613281 " fill-opacity="1" fill-rule="evenodd"/><path fill="#5c80be" d="M 306.058594 195.882812 C 307.058594 195.882812 308.054688 195.136719 308.054688 193.890625 C 308.054688 192.894531 307.304688 191.894531 306.058594 191.894531 C 305.0625 191.894531 304.066406 192.644531 304.066406 193.890625 C 304.316406 195.136719 305.0625 195.882812 306.058594 195.882812 Z M 306.058594 195.882812 " fill-opacity="1" fill-rule="evenodd"/><path fill="#5c80be" d="M 311.792969 141.808594 C 312.789062 141.808594 313.785156 141.058594 313.785156 139.8125 C 313.785156 138.816406 313.039062 137.820312 311.792969 137.820312 C 310.792969 137.820312 309.796875 138.566406 309.796875 139.8125 C 310.046875 140.808594 310.792969 141.808594 311.792969 141.808594 Z M 311.792969 141.808594 " fill-opacity="1" fill-rule="evenodd"/><path fill="#5c80be" d="M 283.132812 118.382812 C 284.128906 118.382812 285.128906 117.632812 285.128906 116.386719 C 285.128906 115.390625 284.378906 114.394531 283.132812 114.394531 C 282.136719 114.394531 281.140625 115.140625 281.140625 116.386719 C 281.140625 117.632812 282.136719 118.382812 283.132812 118.382812 Z M 283.132812 118.382812 " fill-opacity="1" fill-rule="evenodd"/><path fill="#5c80be" d="M 147.070312 93.710938 C 148.066406 93.710938 149.0625 92.964844 149.0625 91.71875 C 149.0625 90.472656 148.316406 89.722656 147.070312 89.722656 C 146.074219 89.722656 145.074219 90.472656 145.074219 91.71875 C 145.074219 92.964844 146.074219 93.710938 147.070312 93.710938 Z M 147.070312 93.710938 " fill-opacity="1" fill-rule="evenodd"/><path fill="#5c80be" d="M 91.496094 97.945312 C 92.496094 97.945312 93.492188 97.199219 93.492188 95.953125 C 93.492188 94.957031 92.742188 93.960938 91.496094 93.960938 C 90.5 93.960938 89.503906 94.707031 89.503906 95.953125 C 89.753906 96.949219 90.5 97.945312 91.496094 97.945312 Z M 91.496094 97.945312 " fill-opacity="1" fill-rule="evenodd"/><path fill="#5c80be" d="M 244.007812 162.492188 C 245.003906 162.492188 246.003906 161.742188 246.003906 160.496094 C 246.003906 159.5 245.253906 158.503906 244.007812 158.503906 C 243.011719 158.503906 242.015625 159.25 242.015625 160.496094 C 242.015625 161.492188 243.011719 162.492188 244.007812 162.492188 Z M 244.007812 162.492188 " fill-opacity="1" fill-rule="evenodd"/><path fill="#5c80be" d="M 265.441406 271.140625 C 266.4375 271.140625 267.433594 270.394531 267.433594 269.148438 C 267.433594 268.152344 266.6875 267.15625 265.441406 267.15625 C 264.441406 267.15625 263.445312 267.902344 263.445312 269.148438 C 263.445312 270.394531 264.441406 271.140625 265.441406 271.140625 Z M 265.441406 271.140625 " fill-opacity="1" fill-rule="evenodd"/><path fill="#5c80be" d="M 308.800781 250.957031 C 309.796875 250.957031 310.546875 250.210938 310.546875 249.210938 C 310.546875 248.214844 309.796875 247.46875 308.800781 247.46875 C 307.804688 247.46875 307.058594 248.214844 307.058594 249.210938 C 307.058594 250.210938 307.804688 250.957031 308.800781 250.957031 Z M 308.800781 250.957031 " fill-opacity="1" fill-rule="evenodd"/><path fill="#5c80be" d="M 321.757812 194.140625 C 322.757812 194.140625 323.753906 193.390625 323.753906 192.144531 C 323.753906 191.148438 323.003906 190.152344 321.757812 190.152344 C 320.761719 190.152344 319.765625 190.898438 319.765625 192.144531 C 320.015625 193.140625 320.761719 194.140625 321.757812 194.140625 Z M 321.757812 194.140625 " fill-opacity="1" fill-rule="evenodd"/><path fill="#5c80be" d="M 207.125 240.738281 C 208.125 240.738281 209.121094 239.992188 209.121094 238.746094 C 209.121094 237.75 208.371094 236.753906 207.125 236.753906 C 206.128906 236.753906 205.132812 237.5 205.132812 238.746094 C 205.132812 239.992188 205.882812 240.738281 207.125 240.738281 Z M 207.125 240.738281 " fill-opacity="1" fill-rule="evenodd"/><path fill="#5c80be" d="M 148.316406 311.761719 C 149.3125 311.761719 150.308594 311.015625 150.308594 309.769531 C 150.308594 308.773438 149.5625 307.773438 148.316406 307.773438 C 147.070312 307.773438 146.320312 308.523438 146.320312 309.769531 C 146.320312 311.015625 147.320312 311.761719 148.316406 311.761719 Z M 148.316406 311.761719 " fill-opacity="1" fill-rule="evenodd"/><path fill="#5c80be" d="M 210.863281 311.761719 C 211.863281 311.761719 212.859375 311.015625 212.859375 309.769531 C 212.859375 308.773438 212.109375 307.773438 210.863281 307.773438 C 209.867188 307.773438 208.871094 308.523438 208.871094 309.769531 C 208.871094 310.765625 209.867188 311.761719 210.863281 311.761719 Z M 210.863281 311.761719 " fill-opacity="1" fill-rule="evenodd"/><path fill="#5c80be" d="M 91.25 281.359375 C 92.246094 281.359375 93.242188 280.613281 93.242188 279.367188 C 93.242188 278.121094 92.496094 277.371094 91.25 277.371094 C 90.25 277.371094 89.253906 278.121094 89.253906 279.367188 C 89.253906 280.613281 90.25 281.359375 91.25 281.359375 Z M 91.25 281.359375 " fill-opacity="1" fill-rule="evenodd"/><path fill="#5c80be" d="M 280.390625 293.320312 C 281.386719 293.25 282.386719 292.574219 282.386719 291.328125 C 282.386719 290.332031 281.636719 289.335938 280.390625 289.335938 C 279.144531 289.335938 278.398438 290.082031 278.398438 291.328125 C 278.398438 292.523438 279.292969 293.402344 280.390625 293.320312 Z M 280.390625 293.320312 " fill-opacity="1" fill-rule="evenodd"/><path fill="#5c80be" d="M 214.105469 52.09375 C 215.101562 52.09375 216.097656 51.347656 216.097656 50.101562 C 216.097656 49.105469 215.351562 48.105469 214.105469 48.105469 C 213.109375 48.105469 212.109375 48.855469 212.109375 50.101562 C 212.109375 51.347656 213.109375 52.09375 214.105469 52.09375 Z M 214.105469 52.09375 " fill-opacity="1" fill-rule="evenodd"/><path fill="#93bed1" d="M 274.816406 92.398438 L 274.316406 92.398438 C 278.054688 99.738281 280.601562 105.886719 283.132812 115.878906 L 283.632812 115.878906 C 281.417969 106.199219 278.738281 99.621094 274.816406 92.398438 Z M 274.816406 92.398438 " fill-opacity="1" fill-rule="evenodd"/><path fill="#a6a6a6" d="M -9.4375 142.632812 L 384.136719 142.632812 L 384.136719 231.761719 L -9.4375 231.761719 L -9.4375 142.632812 " fill-opacity="0.5" fill-rule="nonzero"/><g fill="#000000" fill-opacity="1"><g transform="translate(29.486723, 201.848219)"><g><path d="M 54.429688 0 L 37.402344 0 L 18.117188 -23.089844 L 18.117188 0 L 3.804688 0 L 3.804688 -34.121094 L 20.828125 -34.121094 L 40.113281 -11.152344 L 40.113281 -34.121094 L 54.429688 -34.121094 Z M 54.429688 0 "/></g></g></g><g fill="#000000" fill-opacity="1"><g transform="translate(87.711946, 201.848219)"><g><path d="M 44.894531 0 L 3.804688 0 L 3.804688 -34.121094 L 43.015625 -34.121094 L 43.015625 -25.679688 L 18.117188 -25.679688 L 18.117188 -20.332031 L 39.164062 -20.332031 L 39.164062 -13.765625 L 18.117188 -13.765625 L 18.117188 -8.441406 L 44.894531 -8.441406 Z M 44.894531 0 "/></g></g></g><g fill="#000000" fill-opacity="1"><g transform="translate(134.501341, 201.848219)"><g><path d="M 57.472656 0 L 45.535156 0 L 37.117188 -22.160156 L 28.699219 0 L 16.761719 0 L 0.355469 -34.097656 L 14.859375 -34.097656 L 23.421875 -12.4375 L 32.601562 -34.097656 L 41.636719 -34.097656 L 50.8125 -12.4375 L 59.375 -34.097656 L 73.878906 -34.097656 Z M 57.472656 0 "/></g></g></g><g fill="#000000" fill-opacity="1"><g transform="translate(205.873834, 201.848219)"><g><path d="M 22.542969 0.738281 C 17.929688 0.738281 14.210938 0.242188 11.390625 -0.75 C 8.566406 -1.738281 6.421875 -3.101562 4.945312 -4.839844 C 3.472656 -6.574219 2.480469 -8.574219 1.972656 -10.84375 L 17.167969 -10.84375 C 18.292969 -9.226562 20.085938 -8.417969 22.542969 -8.417969 C 25 -8.417969 26.789062 -9.226562 27.914062 -10.84375 C 28.011719 -11 28.058594 -11.144531 28.058594 -11.269531 C 28.058594 -11.699219 27.492188 -12.019531 26.359375 -12.234375 C 25.222656 -12.449219 23.53125 -12.609375 21.28125 -12.722656 C 18.445312 -12.847656 15.464844 -13.148438 12.339844 -13.625 C 5.382812 -14.703125 1.902344 -17.5 1.902344 -22.019531 C 1.902344 -22.398438 1.925781 -22.804688 1.972656 -23.230469 C 2.480469 -25.496094 3.472656 -27.5 4.945312 -29.234375 C 6.421875 -30.972656 8.566406 -32.335938 11.390625 -33.324219 C 14.210938 -34.316406 17.929688 -34.8125 22.542969 -34.8125 C 27.15625 -34.8125 30.871094 -34.316406 33.695312 -33.324219 C 36.515625 -32.335938 38.664062 -30.972656 40.136719 -29.234375 C 41.613281 -27.5 42.601562 -25.496094 43.109375 -23.230469 L 27.914062 -23.230469 C 26.789062 -24.847656 25 -25.65625 22.542969 -25.65625 C 20.085938 -25.65625 18.292969 -24.847656 17.167969 -23.230469 C 17.089844 -23.105469 17.050781 -22.984375 17.050781 -22.875 C 17.050781 -22.492188 17.59375 -22.210938 18.675781 -22.03125 C 19.761719 -21.847656 21.363281 -21.695312 23.480469 -21.566406 C 25.597656 -21.441406 27.851562 -21.234375 30.246094 -20.949219 C 32.640625 -20.664062 34.878906 -20.167969 36.964844 -19.460938 C 39.046875 -18.757812 40.675781 -17.714844 41.847656 -16.335938 C 42.769531 -15.273438 43.230469 -13.925781 43.230469 -12.292969 C 43.230469 -11.832031 43.1875 -11.351562 43.109375 -10.84375 C 42.601562 -8.574219 41.613281 -6.574219 40.136719 -4.839844 C 38.664062 -3.101562 36.515625 -1.738281 33.695312 -0.75 C 30.871094 0.242188 27.15625 0.738281 22.542969 0.738281 Z M 22.542969 0.738281 "/></g></g></g><g fill="#000000" fill-opacity="1"><g transform="translate(250.998961, 201.848219)"><g><path d="M 22.542969 0.738281 C 17.929688 0.738281 14.210938 0.242188 11.390625 -0.75 C 8.566406 -1.738281 6.421875 -3.101562 4.945312 -4.839844 C 3.472656 -6.574219 2.480469 -8.574219 1.972656 -10.84375 L 17.167969 -10.84375 C 18.292969 -9.226562 20.085938 -8.417969 22.542969 -8.417969 C 25 -8.417969 26.789062 -9.226562 27.914062 -10.84375 C 28.011719 -11 28.058594 -11.144531 28.058594 -11.269531 C 28.058594 -11.699219 27.492188 -12.019531 26.359375 -12.234375 C 25.222656 -12.449219 23.53125 -12.609375 21.28125 -12.722656 C 18.445312 -12.847656 15.464844 -13.148438 12.339844 -13.625 C 5.382812 -14.703125 1.902344 -17.5 1.902344 -22.019531 C 1.902344 -22.398438 1.925781 -22.804688 1.972656 -23.230469 C 2.480469 -25.496094 3.472656 -27.5 4.945312 -29.234375 C 6.421875 -30.972656 8.566406 -32.335938 11.390625 -33.324219 C 14.210938 -34.316406 17.929688 -34.8125 22.542969 -34.8125 C 27.15625 -34.8125 30.871094 -34.316406 33.695312 -33.324219 C 36.515625 -32.335938 38.664062 -30.972656 40.136719 -29.234375 C 41.613281 -27.5 42.601562 -25.496094 43.109375 -23.230469 L 27.914062 -23.230469 C 26.789062 -24.847656 25 -25.65625 22.542969 -25.65625 C 20.085938 -25.65625 18.292969 -24.847656 17.167969 -23.230469 C 17.089844 -23.105469 17.050781 -22.984375 17.050781 -22.875 C 17.050781 -22.492188 17.59375 -22.210938 18.675781 -22.03125 C 19.761719 -21.847656 21.363281 -21.695312 23.480469 -21.566406 C 25.597656 -21.441406 27.851562 -21.234375 30.246094 -20.949219 C 32.640625 -20.664062 34.878906 -20.167969 36.964844 -19.460938 C 39.046875 -18.757812 40.675781 -17.714844 41.847656 -16.335938 C 42.769531 -15.273438 43.230469 -13.925781 43.230469 -12.292969 C 43.230469 -11.832031 43.1875 -11.351562 43.109375 -10.84375 C 42.601562 -8.574219 41.613281 -6.574219 40.136719 -4.839844 C 38.664062 -3.101562 36.515625 -1.738281 33.695312 -0.75 C 30.871094 0.242188 27.15625 0.738281 22.542969 0.738281 Z M 22.542969 0.738281 "/></g></g></g><g fill="#000000" fill-opacity="1"><g transform="translate(293.270733, 201.848219)"><g><path d="M 33.289062 0 L 18.976562 0 L 18.976562 -16.167969 L 0.355469 -34.121094 L 16.214844 -34.121094 L 26.132812 -23.921875 L 36.023438 -34.121094 L 51.882812 -34.121094 L 33.289062 -16.167969 Z M 33.289062 0 "/></g></g></g></svg>